<?xml version="1.0" encoding="UTF-8"?>
<svg id="Capa_2" data-name="Capa 2" xmlns="http://www.w3.org/2000/svg" xmlns:xlink="http://www.w3.org/1999/xlink" viewBox="0 0 1233.82 603.31">
  <defs>
    <style>
      .cls-1 {
        fill: #f4f4f4;
      }

      .cls-2 {
        fill: #fff;
      }

      .cls-3, .cls-4 {
        fill: #b19162;
      }

      .cls-5 {
        fill: #8e3143;
      }

      .cls-6 {
        fill: #d4c2a9;
      }

      .cls-7 {
        fill: #ddd0ab;
      }

      .cls-8 {
        fill: #e1d4b9;
      }

      .cls-9 {
        filter: url(#drop-shadow-1);
      }

      .cls-9, .cls-10 {
        fill: #e9dfcc;
      }

      .cls-11 {
        fill: #5d2433;
      }

      .cls-12 {
        fill: #764c28;
      }

      .cls-13 {
        fill: #d6c6ad;
      }

      .cls-14 {
        fill: #c4ac89;
      }

      .cls-4 {
        filter: url(#drop-shadow-2);
      }

      .cls-15 {
        fill: #d7c5a2;
      }
    </style>
    <filter id="drop-shadow-1" filterUnits="userSpaceOnUse">
      <feOffset dx="3.62" dy="3.62"/>
      <feGaussianBlur result="blur" stdDeviation="3.62"/>
      <feFlood flood-color="#000" flood-opacity=".3"/>
      <feComposite in2="blur" operator="in"/>
      <feComposite in="SourceGraphic"/>
    </filter>
    <filter id="drop-shadow-2" filterUnits="userSpaceOnUse">
      <feOffset dx="2.89" dy="2.89"/>
      <feGaussianBlur result="blur-2" stdDeviation="3.85"/>
      <feFlood flood-color="#000" flood-opacity=".2"/>
      <feComposite in2="blur-2" operator="in"/>
      <feComposite in="SourceGraphic"/>
    </filter>
  </defs>
  <g id="Capa_1-2" data-name="Capa 1">
    <rect class="cls-11" x="7.64" y="152.15" width="157.5" height="152.11"/>
    <rect class="cls-11" x="772.24" width="306.59" height="152.11" transform="translate(1851.07 152.11) rotate(180)"/>
    <g>
      <path class="cls-3" d="m1035.72,35.11c-5.51-2.75-11.19-5.6-22.44-5.6s-16.94,2.85-22.44,5.6c-5.18,2.59-10.07,5.03-20.07,5.03s-14.9-2.44-20.07-5.03c-5.5-2.75-11.19-5.6-22.45-5.6s-16.94,2.85-22.44,5.6c-5.18,2.59-10.07,5.03-20.07,5.03s-14.9-2.45-20.08-5.03c-5.51-2.75-11.19-5.6-22.46-5.6s-16.96,2.85-22.46,5.6c-5.19,2.59-10.08,5.03-20.09,5.03v5.32c11.26,0,16.96-2.85,22.46-5.6,5.18-2.59,10.08-5.04,20.09-5.04s14.9,2.45,20.08,5.04c5.5,2.75,11.19,5.6,22.46,5.6s16.95-2.85,22.45-5.6c5.18-2.59,10.06-5.04,20.07-5.04s14.9,2.45,20.08,5.04c5.5,2.75,11.19,5.6,22.45,5.6s16.95-2.85,22.45-5.6c5.18-2.59,10.06-5.04,20.06-5.04s14.89,2.45,20.06,5.04c5.5,2.75,11.19,5.6,22.44,5.6v-5.32c-10,0-14.88-2.44-20.06-5.03Z"/>
      <path class="cls-3" d="m1013.28,52.14c-11.25,0-16.94,2.85-22.44,5.6-5.18,2.59-10.07,5.03-20.07,5.03s-14.9-2.44-20.07-5.03c-5.5-2.75-11.19-5.6-22.45-5.6s-16.94,2.85-22.44,5.6c-5.18,2.59-10.07,5.03-20.07,5.03s-14.9-2.45-20.08-5.03c-5.51-2.75-11.19-5.6-22.46-5.6s-16.96,2.85-22.46,5.6c-5.19,2.59-10.08,5.03-20.09,5.03v5.32c11.26,0,16.96-2.84,22.46-5.6,5.18-2.59,10.08-5.04,20.09-5.04s14.9,2.44,20.08,5.04c5.5,2.75,11.19,5.6,22.46,5.6s16.95-2.84,22.45-5.6c5.18-2.59,10.06-5.04,20.07-5.04s14.9,2.45,20.08,5.04c5.5,2.75,11.19,5.6,22.45,5.6s16.95-2.84,22.45-5.6c5.18-2.59,10.06-5.04,20.06-5.04s14.89,2.44,20.06,5.04c5.5,2.75,11.19,5.6,22.44,5.6v-5.32c-10,0-14.88-2.44-20.06-5.03-5.51-2.75-11.19-5.6-22.44-5.6Z"/>
      <path class="cls-3" d="m1013.28,74.76c-11.25,0-16.94,2.84-22.44,5.6-5.18,2.59-10.07,5.03-20.07,5.03s-14.9-2.44-20.07-5.03c-5.5-2.75-11.19-5.6-22.45-5.6s-16.94,2.84-22.44,5.6c-5.18,2.59-10.07,5.03-20.07,5.03s-14.9-2.44-20.08-5.03c-5.51-2.75-11.19-5.6-22.46-5.6s-16.96,2.84-22.46,5.6c-5.19,2.59-10.08,5.03-20.09,5.03v5.32c11.26,0,16.96-2.85,22.46-5.6,5.18-2.59,10.08-5.04,20.09-5.04s14.9,2.44,20.08,5.04c5.5,2.75,11.19,5.6,22.46,5.6s16.95-2.85,22.45-5.6c5.18-2.59,10.06-5.04,20.07-5.04s14.9,2.45,20.08,5.04c5.5,2.75,11.19,5.6,22.45,5.6s16.95-2.85,22.45-5.6c5.18-2.59,10.06-5.04,20.06-5.04s14.89,2.44,20.06,5.04c5.5,2.75,11.19,5.6,22.44,5.6v-5.32c-10,0-14.88-2.44-20.06-5.03-5.51-2.75-11.19-5.6-22.44-5.6Z"/>
      <path class="cls-3" d="m1013.28,97.39c-11.25,0-16.94,2.85-22.44,5.6-5.18,2.59-10.07,5.04-20.07,5.04s-14.9-2.44-20.07-5.04c-5.5-2.75-11.19-5.6-22.45-5.6s-16.94,2.85-22.44,5.6c-5.18,2.59-10.07,5.04-20.07,5.04s-14.9-2.45-20.08-5.04c-5.51-2.75-11.19-5.6-22.46-5.6s-16.96,2.85-22.46,5.6c-5.19,2.59-10.08,5.04-20.09,5.04v5.31c11.26,0,16.96-2.85,22.46-5.6,5.18-2.59,10.08-5.04,20.09-5.04s14.9,2.44,20.08,5.04c5.5,2.75,11.19,5.6,22.46,5.6s16.95-2.85,22.45-5.6c5.18-2.59,10.06-5.04,20.07-5.04s14.9,2.45,20.08,5.04c5.5,2.75,11.19,5.6,22.45,5.6s16.95-2.85,22.45-5.6c5.18-2.59,10.06-5.04,20.06-5.04s14.89,2.44,20.06,5.04c5.5,2.75,11.19,5.6,22.44,5.6v-5.31c-10,0-14.88-2.44-20.06-5.04-5.51-2.75-11.19-5.6-22.44-5.6Z"/>
    </g>
    <rect class="cls-3" x="7.64" width="153.03" height="152.11"/>
    <rect class="cls-10" x="156.32" width="310.55" height="226.07"/>
    <rect class="cls-7" x="466.96" width="153.03" height="152.11"/>
    <rect class="cls-3" x="620.03" width="153.03" height="152.11"/>
    <g>
      <path class="cls-5" d="m80.69,22.99c-10.54,3.4-31.93,50.28-26.49,72.71s26.49,24.12,26.49,24.12c0,0,21.05-1.7,26.49-24.12,5.44-22.42-15.95-69.31-26.49-72.71Z"/>
      <polygon class="cls-10" points="101.8 81.79 83.7 100.41 82.53 75.97 95.84 52.67 82.34 72.08 80.69 37.59 79.04 72.08 65.54 52.67 78.85 75.97 77.68 100.41 59.57 81.79 77.47 104.76 76.09 133.64 80.69 133.64 85.29 133.64 83.91 104.76 101.8 81.79"/>
    </g>
    <g>
      <path class="cls-5" d="m698,14.79c-.35-.92-1.66-.92-2.01,0-8.59,22.35-29.81,32.3-29.81,57.82,0,17.02,13.79,30.82,30.81,30.82s30.82-13.8,30.82-30.82c0-25.52-21.22-35.47-29.81-57.82Zm-17.82,71.01c-1.28,1.85-4.03,1.74-5.19-.18-2.32-3.86-3.66-8.38-3.66-13.21,0-7.03,1.93-12.64,4.78-17.68-3.34,13.44-.33,22.02,3.93,27.37.85,1.07.92,2.57.14,3.7Zm9.41,8.03c-.68,1.06-1.83,1.64-3,1.64-.57,0-1.13-.13-1.66-.41-.3-.16-.6-.33-.89-.5-1.67-.97-2.27-3.08-1.34-4.78.65-1.18,1.86-1.84,3.11-1.84.59,0,1.19.14,1.74.45.23.12.45.24.67.36,1.87.95,2.5,3.31,1.37,5.08Z"/>
      <ellipse class="cls-5" cx="696.99" cy="119.35" rx="21.94" ry="4.75"/>
      <path class="cls-5" d="m722.56,115.78c4.5.46,15.15,1.84,17.17,6.28.69,1.49.16,3.19-.92,4.32-4.79,4.96-19.21,6.85-26.08,7.55-14.39,1.29-29.02,1.01-43.22-1.81-4.24-.95-12.89-2.94-15.02-6.95-.81-1.55-.35-3.26.88-4.42,2.17-2.02,5.51-2.89,8.31-3.56,2.58-.58,5.18-.94,7.78-1.18.19-.02.35.12.37.31.02.17-.1.32-.26.36-3.71.95-7.47,1.95-10.94,3.56-1.09.5-4.58,2.3-3.66,3.6,3.22,3.97,19.22,5.44,24.65,5.84,7.67.56,15.38.66,23.06.39,7.62-.3,15.37-.91,22.8-2.46,2.61-.59,7.81-1.78,9.4-3.83.35-.46-.03-.91-.36-1.28-.87-.91-2.08-1.53-3.24-2.08-1.12-.52-2.3-.97-3.5-1.39-2.42-.83-4.92-1.49-7.41-2.1-.69-.18-.5-1.19.19-1.13h0Z"/>
    </g>
    <g>
      <path class="cls-15" d="m428.69,160.07c-.99-.94-1.43-3.18-1.01-4.48.32.86.83,1.8,1.55,2.4.81.68,1.69.7,2.57.79.41-.11.84-.19,1.23-.28,1.25-.28,3.13-.84,4.38-.31.27.11.51.27.73.46.58-.01,1.12-.14,1.69-.67.75-.7.8-2,1.41-2.6.75.56.98,1.38.95,2.24-.05,1.05-.67,1.6-.93,2.53,2.88-1.15,3.69,2.31,5.54,3.48-1.84,1.23-4.45,1.08-6.43-.01.22,1.62.82,3.69,1.65,5.11.72,1.23,2.15,1.52,3.45,1.79,1.28.26,2.58.61,3.88.82,2.05.33,3.98.09,6.03.09,2.97.01,5.58-.2,8.49-.8,2.66-.55,5.29-1.25,8-1.47,1.77-.14,3.58.14,5.3.62,1.02.29,2.07.51,3,1.03.87.49,1.25.5,2.18.65,2.01.34,2.8,2.39,4.02,3.72,1.47,1.6,4.42,1.24,5.05,4.24.26,1.21-.2,3.17-1,4.01-.12-1.53-1.47-3.6-3.22-3.47-.16,2.9-.51,5.9-1.21,8.68-.64,2.54-1.22,4.27-.02,6.8.69,1.46,1.67,2.1,2.82,3.1,1.24,1.08.99,1.71.68,3.19-.38,1.82-.64,3.68-.55,5.59.08,1.73.87,3.62.88,5.23.01,1.01-1.03,2.46-1.64,3.51-.56.96-.71.97-1.99,1.33-.79.22-1.7.42-2.49.55-.1-1.54,1.63-2.97,2.21-4.4.79-1.95.43-3.73.4-5.8-.02-1.45.47-3.94-.16-5.1-.47-.85-2.03-1.78-2.73-2.54-.66-.71-1.25-1.7-2.05-2.18-.17,2.54-.34,3.23-1.92,4.93-1.08,1.16-3.04,2.87-3.38,4.42-.16.7.35,1.83.02,2.64-.39.94-.56.56-1.18,1.17-.64.63-1.12,1.51-2.04,1.76-.95.26-2.84.04-3.9,0,.67-2.13,2.39-4.05,3.35-6.16.91-2.02,2.56-3.65,3.39-5.76,1.1-2.78-.47-4.72-2.02-6.9-1.06-1.49-1.11-.69-2.56.53-1.45,1.21-2.65,1.72-4.48,2.13-4.46,1.01-8.74-.16-12.92-1.65-.77-.27-1.74-.74-2.57-.65-.26.54.03,1.43-.01,2.05-.06,1.02-.34,2.06-.61,3.03-.47,1.7-.72,3.2-.72,5.01,0,1.99-.16,3.94-.16,5.93,0,1.33.26,2.48.31,3.77.06,1.33.56,2.49.69,3.78.07.7-.18,1.39-.69,1.96-.27.31-.54.38-.84.61-.24.18-.52.52-.8.67-.73.39-2.61.39-3.35.08-.92-.39-.25-.98.14-1.66.65-1.14,1.52-1.86,1.71-3.24.17-1.26.16-2.64.1-3.92-.08-1.8-.71-3.88-.38-5.64.5-2.66-.39-5.07-.9-7.66-.76.79-.52,3.34-.46,4.46.05.84.38,1.71.4,2.53.02,1.08-.59,2.04-.55,3.2.05,1.4.18,2.83.35,4.22.12.92.17,1.16-.42,1.9-.42.52-.83,1.25-1.42,1.59-.65.37-1.92.34-2.65.29-1.11-.07-.86-.27-.49-.97,1.05-1.99,1.81-4.17,1.8-6.49,0-.89.3-1.98.16-2.84-.14-.86-.56-1.53-.55-2.47,0-1.15.21-2.24.15-3.41-.05-.95.25-2.03-.12-2.94-.45-1.09-1.93-2.17-2.82-2.88-1.13-.91-2.36-1.55-2.96-2.95-.74-1.74-.78-3.67-1.39-5.45-.38-1.09-.61-2.07-.7-3.21-.15-1.76-.18-3.54-.39-5.3-.16-1.32.42-2.69.16-4-.05-.26-.13-.46-.24-.61-.46.37-.99.63-1.63.66-1.46.06-3.11-1.04-3.22-2.59-.07-1.11.48-2.17.63-3.26.09-.64.1-1.28.07-1.91-.03-.36-.07-.72-.15-1.09-.14-.66-.25-1.39-.28-2.13-.82.23-1.68.26-2.67-.03-1.02-.29-2-1.61-3.06-1.52.91-1.77,3.71-2.92,5.53-1.92Z"/>
      <g>
        <g>
          <path class="cls-15" d="m386.95,63.8c0,4.87,3.94,8.81,8.81,8.81,4.87,0,8.81-3.94,8.81-8.81,0-4.87-3.94-8.81-8.81-8.81-4.87,0-8.81,3.94-8.81,8.81Zm1.76,0c0-3.9,3.16-7.05,7.05-7.05s7.05,3.16,7.05,7.05c0,3.9-3.16,7.05-7.05,7.05s-7.05-3.16-7.05-7.05Z"/>
          <g>
            <path class="cls-15" d="m394.45,56.87c-.39.07-.76.18-1.12.31l-1.98-7.38-1.17.23-9.89-29.44,12.55-11.63,1.65,40.22-1.7.34,1.67,7.35Z"/>
            <path class="cls-15" d="m399.7,52.46l-1.47,4.74c-.39-.15-.8-.26-1.22-.34l1.31-4.88-1.13-.39,6.15-30.44,16.68-3.8-18.68,35.66-1.64-.56Z"/>
            <path class="cls-15" d="m405.05,56.08l-3.7,3.43c-.26-.33-.54-.64-.85-.93l3.6-3.6-.79-.9,20.55-23.29,16.35,5.05-34.01,21.54-1.14-1.3Z"/>
            <path class="cls-15" d="m386.77,53.73l4.39,4.74c-.3.26-.59.55-.84.86l-4.64-4.64-.9.79-23.29-20.55,5.05-16.35,21.54,34.01-1.3,1.14Z"/>
            <path class="cls-15" d="m410.73,62.92l-.26-1.17-7.71,1.21c-.05-.39-.12-.77-.23-1.13l7.62-1.5-.38-1.69,37.44-14.78-5.55,16.18-30.93,2.88Z"/>
            <path class="cls-15" d="m380.79,61.23l-30.44-6.15-3.8-16.68,35.66,18.68-.56,1.64,7.61,2.36c-.15.35-.26.72-.35,1.09l-7.73-2.07-.39,1.13Z"/>
            <path class="cls-15" d="m384.82,72.27l5.28-4.26c.24.32.5.62.79.89l-5.08,4.43,1.17,1.27-25.03,31.52-3.28-16.79,25.34-17.95.81.88Z"/>
            <path class="cls-15" d="m390.28,76.59l2.48-6.41c.36.17.73.31,1.12.42l-2.2,6.43,1.65.51-5.92,39.82-11.24-12.9,12.97-28.22,1.14.36Z"/>
            <path class="cls-15" d="m384.53,63.96l.34,1.7,3.91-.89c.06.44.16.86.29,1.27l-3.92,1.05.23,1.17-29.44,9.89-11.63-12.55,40.22-1.65Z"/>
            <path class="cls-15" d="m402.95,73.95l-3.39-4.21c.35-.23.68-.48.99-.77l3.48,3.99,1.27-1.17,31.52,25.03-16.79,3.28-17.95-25.34.88-.81Z"/>
            <path class="cls-15" d="m405.42,69.28l.36-1.14-3.61-1.39c.18-.39.32-.81.43-1.23l3.61,1.24.51-1.65,39.82,5.92-12.9,11.24-28.22-12.97Z"/>
            <path class="cls-15" d="m396.02,70.84c.44-.02.87-.07,1.28-.16l.81,4.13,1.69-.38,14.78,37.44-16.18-5.55-2.88-30.93,1.17-.26-.67-4.29Z"/>
          </g>
        </g>
        <polygon class="cls-15" points="364.79 224.84 414.61 224.84 406.19 99.99 402.95 100.21 411.14 221.59 368.58 221.59 388.55 94.02 385.34 93.51 364.79 224.84"/>
        <path class="cls-15" d="m396.45,224.82c-.8-.12-1.38-.8-1.38-1.61v-42.21s-21.52,0-21.52,0c-.9,0-1.62-.73-1.62-1.62,0-.9.73-1.62,1.62-1.62h21.52s0-102.64,0-102.64c0-.9.73-1.62,1.62-1.62s1.62.73,1.62,1.62v102.64s11.61,0,11.61,0c.51,0,1,.24,1.3.65.31.41.4.95.25,1.44l-13.23,43.83c-.21.69-.85,1.15-1.55,1.15-.08,0-.16,0-.24-.02Zm1.86-43.81v31.22s9.42-31.22,9.42-31.22h-9.42Z"/>
        <path class="cls-15" d="m396.69,224.84c.26,0,.51-.06.76-.19.79-.42,1.1-1.4.68-2.19l-23.14-43.83c-.42-.79-1.4-1.1-2.19-.68-.79.42-1.1,1.4-.68,2.19l23.14,43.83c.29.55.85.86,1.44.86Z"/>
        <path class="cls-15" d="m374.69,163.11c-.26-.58-.16-1.26.26-1.74l17.25-19.75h-12.48c-.9,0-1.62-.73-1.62-1.62,0-.9.73-1.62,1.62-1.62h25.34c.9,0,1.62.73,1.62,1.62,0,.9-.73,1.62-1.62,1.62h-6.51s11.38,20.01,11.38,20.01c.29.5.28,1.12,0,1.62-.29.5-.82.81-1.4.81h-32.35c-.64,0-1.21-.37-1.48-.95Zm20.79-20.32l-15.74,18.02h25.99s-10.25-18.02-10.25-18.02Z"/>
        <path class="cls-15" d="m382.51,123.76h22.06c.9,0,1.62-.73,1.62-1.62s-.73-1.62-1.62-1.62h-22.06c-.9,0-1.62.73-1.62,1.62s.73,1.62,1.62,1.62Z"/>
      </g>
      <g>
        <path class="cls-15" d="m252.55,172.84h12.47s.64,52.43.64,52.43h110.61s0-53.07,0-53.07l14.07-.64-26.21-34.85-43.16-26.53-47.63,29.09-20.78,33.57Zm64.25,15.98l-11.37,13.95-11.77-13.95h23.14Zm-6.79-24.58l11.15-13.68,11.54,13.68h-22.7Zm-1.46-28.63l11.02,13.06-11.02,13.52v-26.58Zm23.23-1.93l-10.65,13.07-11.03-13.07h19.69s1.99,0,1.99,0Zm1.93,27.98l-10.99-13.03,10.99-13.49c0,4.86,0,20.35,0,26.51Zm15.26,27.15l-11.37,13.95-11.77-13.95h23.14Zm8.62-35.33h4.59v10.75h-4.59v-10.75Zm-6.56,65.2l-11.73-13.9,11.73-14.39c0,5.19,0,21.72,0,28.3Zm-25.3,2.74l11.9-14.6,12.32,14.6h-24.22Zm-1.56-30.55l11.76,13.94-11.76,14.43v-28.36Zm-5.32,27.81l-11.73-13.9,11.73-14.39c0,5.19,0,21.72,0,28.3Zm-25.3,2.74l11.9-14.6,12.32,14.6h-24.22Zm-1.56-30.55l11.76,13.94-11.76,14.43v-28.36Zm-16.2-37.38h4.59v10.75h-4.59v-10.75Z"/>
        <polygon class="cls-15" points="166 173.02 247.98 173.02 270.29 137.83 316.8 110.18 223.42 110.18 184.33 136.88 166 173.02"/>
        <path class="cls-15" d="m172.31,175.58v49.68s89.94,0,89.94,0v-49.68s-89.94,0-89.94,0Zm74.08,6.73h5.64v18.11h-5.64v-18.11Zm-16.26,0h5.64v18.11h-5.64v-18.11Zm-16.26,0h5.64v18.11h-5.64v-18.11Zm-16.26,0h5.64v18.11h-5.64v-18.11Zm-16.26,0h5.64v18.11h-5.64v-18.11Z"/>
      </g>
    </g>
    <rect class="cls-10" x="7.64" y="451.14" width="163.71" height="152.11"/>
    <rect class="cls-3" x="171.33" y="451.14" width="292.75" height="152.11"/>
    <rect class="cls-15" x="924.77" y="450.98" width="153.03" height="152.11"/>
    <rect class="cls-11" x="617.44" y="451.2" width="307.74" height="152.11"/>
    <rect class="cls-10" x="463.89" y="451.2" width="153.61" height="152.11"/>
    <g>
      <polygon class="cls-2" points="136.76 602.49 82.96 602.49 82.96 465.55 115.39 465.55 136.76 482.21 136.76 602.49"/>
      <rect class="cls-7" x="82.96" y="465.55" width="32.43" height="136.93"/>
      <rect class="cls-5" x="85.7" y="471.87" width="26.27" height="3.06"/>
      <rect class="cls-5" x="85.7" y="478.6" width="26.27" height="3.06"/>
      <rect class="cls-5" x="85.7" y="485.33" width="26.27" height="3.06"/>
      <rect class="cls-5" x="85.7" y="492.05" width="26.27" height="3.06"/>
      <rect class="cls-5" x="85.7" y="498.78" width="26.27" height="3.06"/>
      <rect class="cls-5" x="85.7" y="505.51" width="26.27" height="3.06"/>
      <rect class="cls-5" x="85.7" y="512.23" width="26.27" height="3.06"/>
      <rect class="cls-5" x="85.7" y="518.96" width="26.27" height="3.06"/>
      <rect class="cls-5" x="85.7" y="525.69" width="26.27" height="3.06"/>
      <rect class="cls-5" x="85.7" y="532.41" width="26.27" height="3.06"/>
      <rect class="cls-5" x="85.7" y="539.14" width="26.27" height="3.06"/>
      <rect class="cls-5" x="85.7" y="545.87" width="26.27" height="3.06"/>
      <rect class="cls-5" x="85.7" y="552.59" width="26.27" height="3.06"/>
      <rect class="cls-5" x="85.7" y="559.32" width="26.27" height="3.06"/>
      <rect class="cls-5" x="85.7" y="566.05" width="26.27" height="3.06"/>
    </g>
    <g>
      <polygon class="cls-7" points="91.99 540.22 78.51 554.74 24.41 554.74 37.89 540.22 91.99 540.22"/>
      <polygon class="cls-7" points="79.94 526.68 71.26 536.02 36.47 536.02 45.14 526.68 79.94 526.68"/>
      <polygon class="cls-2" points="71.26 536.02 71.26 549.56 79.94 540.22 82.9 540.22 82.9 529.86 79.94 526.68 71.26 536.02"/>
      <rect class="cls-14" x="36.47" y="536.02" width="34.8" height="13.54"/>
      <rect class="cls-14" x="24.41" y="554.74" width="54.1" height="47.74"/>
      <polygon class="cls-2" points="91.99 540.22 106.1 554.33 106.1 602.49 78.51 602.49 78.51 554.74 91.99 540.22"/>
      <rect class="cls-5" x="96.63" y="560.22" width="5.7" height="9.49" transform="translate(198.96 1129.93) rotate(180)"/>
      <rect class="cls-5" x="85.31" y="560.22" width="5.7" height="9.49" transform="translate(176.32 1129.93) rotate(180)"/>
      <rect class="cls-5" x="96.63" y="574.99" width="5.7" height="9.49" transform="translate(198.96 1159.46) rotate(180)"/>
      <rect class="cls-5" x="85.31" y="574.99" width="5.7" height="9.49" transform="translate(176.32 1159.46) rotate(180)"/>
      <polygon class="cls-5" points="77.93 531.7 77.93 539.81 74.9 543.07 74.9 534.96 77.93 531.7"/>
      <path class="cls-5" d="m88.16,602.49h12.25v-7.16c0-3.38-2.74-6.12-6.12-6.12h0c-3.38,0-6.12,2.74-6.12,6.12v7.16Z"/>
    </g>
    <g>
      <path class="cls-6" d="m576.52,486.53l-10.77,24.91-27.12-1.13,8.35-5.24-8.58-13.67-11.07,20.93-11.05-5.85-11.05-5.85,8.96-16.93c2.08-3.93,5.99-5.89,9.88-5.83h6.25s14.39.03,14.39.03h6.21c5.33.02,10.29,2.76,13.12,7.28l4.13,6.59,8.35-5.24Z"/>
      <path class="cls-14" d="m538.63,510.32l8.35-5.24-8.58-13.67-5.27-8.4c-.96-1.53-2.2-2.71-3.59-3.56-1.68-1.02-3.58-1.54-5.49-1.57h6.25s14.39.03,14.39.03l21.05,33.53-27.12-1.13Z"/>
      <path class="cls-13" d="m529.54,479.45l-13.26,27.04-11.05-5.85,8.96-16.93c2.08-3.93,5.99-5.89,9.88-5.83,1.91.03,3.81.55,5.49,1.57Z"/>
      <path class="cls-3" d="m538.41,491.41l-11.07,20.93-11.05-5.85,13.26-27.04c1.39.84,2.63,2.03,3.59,3.56l5.27,8.4Z"/>
      <path class="cls-6" d="m482.32,515.19l27.06-2.13,11.68,24.5-8.54-4.93-8.07,13.98h23.68s0,12.51,0,12.51v12.51h-19.15c-4.44,0-8.01-2.54-9.77-6l-2.92-5.53-6.71-12.73-2.9-5.5c-2.48-4.72-2.38-10.38.29-15l3.89-6.73-8.54-4.93Z"/>
      <path class="cls-14" d="m521.06,537.55l-8.54-4.93-8.07,13.98-4.96,8.59c-.9,1.56-1.37,3.21-1.47,4.84-.11,1.96.31,3.88,1.18,5.58l-2.92-5.53-6.71-12.73,19.8-34.29,11.68,24.5Z"/>
      <path class="cls-13" d="m498.03,560.02l30.1-.92v12.51h-19.15c-4.44,0-8.01-2.54-9.77-6-.86-1.7-1.29-3.62-1.18-5.58Z"/>
      <path class="cls-3" d="m504.45,546.6h23.68s0,12.51,0,12.51l-30.1.92c.09-1.62.56-3.27,1.47-4.84l4.96-8.59Z"/>
      <g>
        <path class="cls-6" d="m555.03,583.4l-15.41-22.34,15.34-22.39.02,9.86,16.14-.03-11.87-20.49,10.82-6.27,10.82-6.27,9.6,16.57c2.23,3.84,1.82,8.2-.3,11.46l-3.32,5.3-7.65,12.19-3.3,5.26c-2.83,4.51-7.79,7.26-13.12,7.27h-7.78s.02,9.88.02,9.88Z"/>
        <path class="cls-14" d="m554.95,538.66l.02,9.86,16.14-.03,9.92-.02c1.81,0,3.47-.42,4.92-1.16,1.75-.88,3.2-2.22,4.24-3.82l-3.32,5.3-7.65,12.19-39.59.07,15.34-22.39Z"/>
        <path class="cls-13" d="m585.94,547.32l-15.89-25.58,10.82-6.27,9.6,16.57c2.23,3.84,1.82,8.2-.3,11.46-1.04,1.6-2.49,2.94-4.24,3.82Z"/>
        <path class="cls-3" d="m571.11,548.5l-11.87-20.49,10.82-6.27,15.89,25.58c-1.45.73-3.11,1.16-4.92,1.16l-9.92.02Z"/>
      </g>
    </g>
    <g>
      <path class="cls-15" d="m899.22,509.96h-4.2v-2.88h4.2c.62,0,1.12-.5,1.12-1.12s-.5-1.12-1.12-1.12h-4.2v-2c0-.62-.5-1.12-1.12-1.12h-5.67c-3.25,0-5.98,2.3-6.63,5.36h-4.94c-5.6,0-10.13,4.54-10.13,10.13v37.19c0,4.18-3.54,7.56-7.79,7.27-3.87-.26-6.79-3.65-6.79-7.53v-15.78c0-5.6-4.54-10.13-10.13-10.13h-10.73c-.03-1.59-.08-3.65-.16-5.7l-1.58-10.71c-.22-.55-.46-1.08-.71-1.6-.48-1.02-1-2.04-1.52-3.16-4.42-9.64-12.83-20.32-19.73-23.19-4.07-1.69-26.74-3.34-39.29-2.47-12.63.88-20.13,2.06-28.4,5.38-29.84,11.99-51.45,34.74-51.45,34.74,0,0-10.44,4.26-17.7,7.65-6.88,3.2-12.25,9.15-13.43,14.3-.41,1.79-.69,3.62-.53,5.49l1.03,9.36c.79,7.82,6.79,10.75,12.69,10.29l4.83-.22c.1-9.69,7.97-17.51,17.68-17.51s17.57,7.82,17.68,17.5l86.28.19c0-9.77,7.92-17.69,17.68-17.69,8.49,0,15.57,5.98,17.28,13.96,1.72-.53,4.87-1.79,6.53-4.24,2.55-3.76,2.48-9.69,1.69-14.95-1.39-9.3-8.83-14.52-8.83-14.52,0,0,0-.02,0-.06h10.68c4.03,0,7.29,3.27,7.29,7.29v16.04c0,5.91,5.09,10.65,11.11,10.09,5.25-.49,9.16-5.11,9.16-10.38v-36.89c0-4.03,3.26-7.29,7.29-7.29h4.93c.65,3.07,3.38,5.38,6.64,5.38h5.67c.62,0,1.12-.5,1.12-1.12v-2h4.2c.62,0,1.12-.5,1.12-1.12s-.5-1.12-1.12-1.12Zm-230.24,30.88c-3.35,2.88-7.26,4.03-9.57,3.02,1.49-4.75,6.51-9.88,12.55-12.69.3-.14.6-.28.92-.42,1.68,2.31,0,6.74-3.89,10.09Zm98-1.97l-14.6,21.59c-.18.26-.47.41-.77.41-.15,0-.3-.03-.43-.11-.42-.22-.61-.72-.43-1.17l6.21-15.87h-11.3c-.35,0-.68-.2-.84-.52-.16-.32-.12-.69.09-.98l15.35-20.46c.28-.38.8-.49,1.21-.25.41.24.58.74.39,1.18l-6.3,14.71h10.65c.35,0,.66.19.82.5.16.31.14.67-.05.96Zm14.54-28.65l-67.53,8.18c.52-2.21,1.98-4.45,4.08-7.54,3.77-5.56,17.75-16.07,29.47-19.35,13.73-3.84,27.51-3.34,36.24-2.25,6.15.77,9.6,5.84,10.94,10.72.57,2.07,1.04,4.03,1.35,6.03.12.81.21,1.63.26,2.47l-14.81,1.74Zm37.78,8.48c0-3.79,4.48-5.46,7.45-6.14.05.11.1.21.14.32l1.54,10.51s0,.09,0,.14c-3.36-.29-9.14-1.32-9.14-4.82Z"/>
      <path class="cls-15" d="m692.83,553.35c-8.41,0-15.22,6.82-15.22,15.24s6.82,15.24,15.22,15.24,15.22-6.82,15.22-15.24-6.82-15.24-15.22-15.24Zm0,23.46c-4.54,0-8.22-3.68-8.22-8.22s3.68-8.22,8.22-8.22,8.22,3.68,8.22,8.22-3.68,8.22-8.22,8.22Z"/>
      <path class="cls-15" d="m814.46,553.35c-8.41,0-15.22,6.82-15.22,15.24s6.82,15.24,15.22,15.24,15.22-6.82,15.22-15.24-6.82-15.24-15.22-15.24Zm0,23.46c-4.54,0-8.22-3.68-8.22-8.22s3.68-8.22,8.22-8.22,8.22,3.68,8.22,8.22-3.68,8.22-8.22,8.22Z"/>
    </g>
    <g>
      <g>
        <path class="cls-3" d="m1025.64,598.55l1.42-.21-8.43-55.91h1.7v-3.56h-15.15v3.56h1.7l-8.43,55.91,1.42.21.5-3.33h24.77l.5,3.33Zm-3.74-14.67l-9.01,3.95-9.01-3.95h18.02Zm-18.38-1.29l9.26-4.79,9.26,4.79h-18.51Zm20.01,1.96l1.28,8.5-10.34-4.53,9.06-3.97Zm-9.36-7.47l7.64-3.95,1.29,8.58-8.93-4.63Zm6.13-4.61l-7.52,3.89-7.52-3.89h15.04Zm-15.29-1.29l7.73-4.5,7.73,4.5h-15.47Zm9.01-5.25l6.16-3.59,1.19,7.87-7.35-4.28Zm4.52-4.12l-5.8,3.37-5.8-3.37h11.59Zm-12.09-1.29l6.33-4.17,6.33,4.17h-12.66Zm7.5-4.94l4.75-3.13,1.05,6.95-5.79-3.82Zm-1.17-.77l-4.66-3.07h9.32l-4.66,3.07Zm-5.95-2.38l4.78,3.15-5.83,3.84,1.05-6.99Zm-1.5,9.93l6.13,3.57-7.31,4.26,1.18-7.83Zm6.05,14.72l-8.98,4.65,1.3-8.62,7.68,3.97Zm-.07,11.44l-10.63,4.66,1.32-8.74,9.31,4.08Zm1.58.69l10.77,4.72h-21.55l10.77-4.72Zm4.28-46.79l1.21,8.03h-11.26l1.21-8.03h8.84Z"/>
        <polygon class="cls-3" points="1006.14 532.05 1006.14 535.4 1012.76 539.23 1019.39 535.4 1019.39 532.05 1006.14 532.05"/>
      </g>
      <g>
        <path class="cls-3" d="m1019.99,496.76l-2.58-.59,1.84,25.37-56.23,26.96c-2.62.54-6.75-1.85-10.21-6.01-2.06,2.06-1.73,7.59.94,13.17,2.66,5.55,6.74,9.26,9.63,8.99-1.13-5.33-.44-10.1,1.6-11.87l56.3-26.99,18.63,17.32,1.16-2.38c.21-.42,4.95-10.53-2.41-25.88-7.36-15.36-18.21-17.98-18.67-18.09Zm16.51,18.14l-14.12,6.77,7.61-16.19c2.21,2.31,4.48,5.37,6.52,9.42Zm-16.95-16.23s4.3.98,9.25,5.64l-7.66,16.3-1.59-21.94Zm19.75,41.2l-16.28-15.14,17.67,4.27c.57,6.85-1.38,10.87-1.38,10.87Zm-16.3-16.76l14.18-6.8c1.91,4.14,2.89,7.85,3.33,11.03l-17.51-4.23Z"/>
        <path class="cls-3" d="m996.2,599.25l1.25-.19-7.39-48.98h1.49v-3.12h-13.27v3.12h1.49l-7.39,48.98,1.25.19.44-2.92h21.69l.44,2.92Zm-3.27-12.85l-7.89,3.46-7.89-3.46h15.79Zm-16.1-1.13l8.11-4.2,8.11,4.2h-16.22Zm17.53,1.72l1.12,7.44-9.06-3.97,7.93-3.48Zm-8.2-6.55l6.69-3.46,1.13,7.52-7.82-4.05Zm5.37-4.04l-6.59,3.41-6.59-3.41h13.17Zm-13.39-1.13l6.77-3.94,6.77,3.94h-13.55Zm7.89-4.6l5.4-3.14,1.04,6.89-6.44-3.75Zm3.96-3.61l-5.08,2.96-5.08-2.96h10.15Zm-10.59-1.13l5.54-3.65,5.54,3.65h-11.09Zm6.57-4.33l4.16-2.74.92,6.09-5.08-3.35Zm-1.02-.68l-4.08-2.69h8.16l-4.08,2.69Zm-5.21-2.08l4.18,2.76-5.11,3.37.92-6.12Zm-1.31,8.69l5.37,3.13-6.41,3.73,1.03-6.86Zm5.3,12.89l-7.86,4.07,1.14-7.55,6.72,3.48Zm-.06,10.02l-9.31,4.08,1.15-7.65,8.16,3.57Zm1.38.61l9.44,4.13h-18.87l9.44-4.13Zm3.75-40.98l1.06,7.03h-9.86l1.06-7.03h7.74Z"/>
        <rect class="cls-3" x="983.22" y="541.33" width="3.14" height="7.14"/>
        <rect class="cls-3" x="1038.96" y="540.31" width="1.28" height="59.91"/>
        <rect class="cls-3" x="1037.18" y="563.77" width="4.59" height="12.49"/>
        <rect class="cls-3" x="1037.18" y="584.16" width="4.59" height="7.9"/>
      </g>
      <g>
        <path class="cls-3" d="m1028.25,461.51l-3.54-.81,2.52,34.73-76.97,36.9c-3.59.73-9.24-2.54-13.97-8.23-2.82,2.82-2.37,10.4,1.29,18.03,3.64,7.59,9.22,12.67,13.18,12.31-1.54-7.3-.6-13.82,2.19-16.25l77.07-36.95,25.51,23.71,1.59-3.26c.28-.58,6.78-14.41-3.3-35.43-10.08-21.02-24.93-24.62-25.56-24.76Zm22.6,24.84l-19.33,9.27,10.42-22.16c3.02,3.16,6.14,7.36,8.92,12.89Zm-23.2-22.22s5.89,1.34,12.66,7.72l-10.49,22.31-2.18-30.03Zm27.04,56.4l-22.29-20.72,24.18,5.85c.78,9.37-1.89,14.87-1.89,14.87Zm-22.32-22.94l19.41-9.31c2.61,5.66,3.96,10.74,4.55,15.1l-23.96-5.8Z"/>
        <path class="cls-3" d="m995.69,601.81l1.71-.26-10.11-67.04h2.04v-4.27h-18.16v4.27h2.04l-10.11,67.04,1.71.26.6-3.99h29.69l.6,3.99Zm-4.48-17.59l-10.8,4.73-10.8-4.73h21.61Zm-22.04-1.54l11.1-5.75,11.1,5.75h-22.2Zm23.99,2.35l1.54,10.19-12.4-5.43,10.86-4.76Zm-11.22-8.96l9.16-4.74,1.55,10.29-10.71-5.55Zm7.35-5.53l-9.02,4.67-9.02-4.67h18.03Zm-18.33-1.54l9.27-5.4,9.27,5.4h-18.55Zm10.8-6.29l7.39-4.3,1.42,9.43-8.81-5.13Zm5.42-4.94l-6.95,4.05-6.95-4.05h13.9Zm-14.5-1.54l7.59-5,7.59,5h-15.18Zm8.99-5.93l5.69-3.75,1.26,8.33-6.95-4.58Zm-1.4-.92l-5.59-3.68h11.17l-5.59,3.68Zm-7.13-2.85l5.73,3.77-6.99,4.61,1.26-8.38Zm-1.79,11.9l7.35,4.28-8.77,5.11,1.42-9.39Zm7.26,17.65l-10.76,5.57,1.56-10.34,9.2,4.77Zm-.09,13.72l-12.75,5.58,1.58-10.48,11.17,4.89Zm1.9.83l12.92,5.66h-25.83l12.92-5.66Zm5.14-56.1l1.45,9.63h-13.5l1.45-9.63h10.6Z"/>
        <rect class="cls-3" x="977.91" y="522.52" width="4.3" height="9.77"/>
        <rect class="cls-3" x="1054.22" y="521.13" width="1.75" height="82.01"/>
        <rect class="cls-3" x="1051.78" y="553.23" width="6.28" height="17.1"/>
        <rect class="cls-3" x="1051.78" y="581.15" width="6.28" height="10.82"/>
      </g>
    </g>
    <rect class="cls-15" x="466.38" y="151.06" width="496.51" height="147.97"/>
    <rect class="cls-3" x="980.31" y="299.03" width="253.51" height="152.11"/>
    <rect class="cls-15" x="835.6" y="152.28" width="330.11" height="146.75"/>
    <rect class="cls-9" x="7.81" y="298.97" width="978.54" height="153.4"/>
    <g>
      <path class="cls-10" d="m570.06,243.27c-3.24-8.8,1.27-18.56,10.06-21.8,8.8-3.24,18.56,1.27,21.8,10.06,3.24,8.8-1.27,18.56-10.06,21.8-8.8,3.24-18.56-1.27-21.8-10.06Z"/>
      <path class="cls-10" d="m537.79,209.17c-2.39-6.5.93-13.71,7.43-16.1,6.5-2.39,13.71.93,16.1,7.43,2.39,6.5-.93,13.71-7.43,16.1-6.5,2.39-13.71-.93-16.1-7.43Z"/>
      <path class="cls-10" d="m537.05,257.21c-2.53-6.87.99-14.48,7.86-17.01,6.87-2.53,14.48.99,17.01,7.86,2.53,6.87-.99,14.48-7.86,17.01-6.87,2.53-14.48-.99-17.01-7.86Z"/>
    </g>
    <g>
      <g>
        <rect class="cls-10" x="767.91" y="75.03" width="65.59" height="84.17"/>
        <rect class="cls-14" x="765.08" y="81.38" width="71.24" height="91.42"/>
        <rect class="cls-1" x="765.08" y="81.38" width="42.94" height="91.42"/>
        <g>
          <rect class="cls-5" x="768.39" y="88.3" width="4.62" height="4.82"/>
          <rect class="cls-5" x="778.57" y="88.3" width="4.62" height="4.82"/>
          <rect class="cls-5" x="788.76" y="88.3" width="4.62" height="4.82"/>
          <rect class="cls-5" x="798.94" y="88.3" width="4.62" height="4.82"/>
        </g>
        <g>
          <rect class="cls-5" x="768.39" y="101.5" width="4.62" height="4.82"/>
          <rect class="cls-5" x="778.57" y="101.5" width="4.62" height="4.82"/>
          <rect class="cls-5" x="788.76" y="101.5" width="4.62" height="4.82"/>
          <rect class="cls-5" x="798.94" y="101.5" width="4.62" height="4.82"/>
        </g>
        <g>
          <rect class="cls-5" x="768.39" y="114.71" width="4.62" height="4.82"/>
          <rect class="cls-5" x="778.57" y="114.71" width="4.62" height="4.82"/>
          <rect class="cls-5" x="788.76" y="114.71" width="4.62" height="4.82"/>
          <rect class="cls-5" x="798.94" y="114.71" width="4.62" height="4.82"/>
        </g>
        <g>
          <rect class="cls-5" x="768.39" y="127.91" width="4.62" height="4.82"/>
          <rect class="cls-5" x="778.57" y="127.91" width="4.62" height="4.82"/>
          <rect class="cls-5" x="788.76" y="127.91" width="4.62" height="4.82"/>
          <rect class="cls-5" x="798.94" y="127.91" width="4.62" height="4.82"/>
        </g>
      </g>
      <g>
        <rect class="cls-14" x="761.6" y="141.95" width="78.2" height="157.1"/>
        <rect class="cls-1" x="761.6" y="141.95" width="47.14" height="157.1"/>
        <g>
          <rect class="cls-5" x="765.23" y="148.31" width="5.07" height="5.29"/>
          <rect class="cls-5" x="776.41" y="148.31" width="5.07" height="5.29"/>
          <rect class="cls-5" x="787.59" y="148.31" width="5.07" height="5.29"/>
          <rect class="cls-5" x="798.77" y="148.31" width="5.07" height="5.29"/>
        </g>
        <g>
          <rect class="cls-5" x="765.23" y="162.81" width="5.07" height="5.29"/>
          <rect class="cls-5" x="776.41" y="162.81" width="5.07" height="5.29"/>
          <rect class="cls-5" x="787.59" y="162.81" width="5.07" height="5.29"/>
          <rect class="cls-5" x="798.77" y="162.81" width="5.07" height="5.29"/>
        </g>
        <g>
          <rect class="cls-5" x="765.23" y="177.3" width="5.07" height="5.29"/>
          <rect class="cls-5" x="776.41" y="177.3" width="5.07" height="5.29"/>
          <rect class="cls-5" x="787.59" y="177.3" width="5.07" height="5.29"/>
          <rect class="cls-5" x="798.77" y="177.3" width="5.07" height="5.29"/>
        </g>
        <g>
          <rect class="cls-5" x="765.23" y="191.79" width="5.07" height="5.29"/>
          <rect class="cls-5" x="776.41" y="191.79" width="5.07" height="5.29"/>
          <rect class="cls-5" x="787.59" y="191.79" width="5.07" height="5.29"/>
          <rect class="cls-5" x="798.77" y="191.79" width="5.07" height="5.29"/>
        </g>
        <g>
          <rect class="cls-5" x="765.23" y="206.29" width="5.07" height="5.29"/>
          <rect class="cls-5" x="776.41" y="206.29" width="5.07" height="5.29"/>
          <rect class="cls-5" x="787.59" y="206.29" width="5.07" height="5.29"/>
          <rect class="cls-5" x="798.77" y="206.29" width="5.07" height="5.29"/>
        </g>
        <g>
          <rect class="cls-5" x="765.23" y="220.78" width="5.07" height="5.29"/>
          <rect class="cls-5" x="776.41" y="220.78" width="5.07" height="5.29"/>
          <rect class="cls-5" x="787.59" y="220.78" width="5.07" height="5.29"/>
          <rect class="cls-5" x="798.77" y="220.78" width="5.07" height="5.29"/>
        </g>
        <g>
          <rect class="cls-5" x="765.23" y="235.27" width="5.07" height="5.29"/>
          <rect class="cls-5" x="776.41" y="235.27" width="5.07" height="5.29"/>
          <rect class="cls-5" x="787.59" y="235.27" width="5.07" height="5.29"/>
          <rect class="cls-5" x="798.77" y="235.27" width="5.07" height="5.29"/>
        </g>
        <g>
          <rect class="cls-5" x="765.23" y="249.77" width="5.07" height="5.29"/>
          <rect class="cls-5" x="776.41" y="249.77" width="5.07" height="5.29"/>
          <rect class="cls-5" x="787.59" y="249.77" width="5.07" height="5.29"/>
          <rect class="cls-5" x="798.77" y="249.77" width="5.07" height="5.29"/>
        </g>
      </g>
    </g>
    <g>
      <rect class="cls-14" x="913.14" y="124.54" width="114.96" height="174.49"/>
      <rect class="cls-1" x="913.14" y="124.54" width="69.29" height="174.49"/>
      <g>
        <rect class="cls-5" x="918.99" y="130.52" width="56.13" height="3.78"/>
        <rect class="cls-5" x="988.22" y="130.52" width="35.55" height="3.78"/>
      </g>
      <g>
        <rect class="cls-5" x="918.99" y="147.13" width="56.13" height="3.78"/>
        <rect class="cls-5" x="988.22" y="147.13" width="35.55" height="3.78"/>
      </g>
      <g>
        <rect class="cls-5" x="918.99" y="163.75" width="56.13" height="3.78"/>
        <rect class="cls-5" x="988.22" y="163.75" width="35.55" height="3.78"/>
      </g>
      <g>
        <rect class="cls-5" x="918.99" y="180.36" width="56.13" height="3.78"/>
        <rect class="cls-5" x="988.22" y="180.36" width="35.55" height="3.78"/>
      </g>
      <g>
        <rect class="cls-5" x="918.99" y="196.98" width="56.13" height="3.78"/>
        <rect class="cls-5" x="988.22" y="196.98" width="35.55" height="3.78"/>
      </g>
      <g>
        <rect class="cls-5" x="918.99" y="213.59" width="56.13" height="3.78"/>
        <rect class="cls-5" x="988.22" y="213.59" width="35.55" height="3.78"/>
      </g>
      <g>
        <rect class="cls-5" x="918.99" y="230.21" width="56.13" height="3.78"/>
        <rect class="cls-5" x="988.22" y="230.21" width="35.55" height="3.78"/>
      </g>
      <g>
        <rect class="cls-5" x="918.99" y="246.82" width="56.13" height="3.78"/>
        <rect class="cls-5" x="988.22" y="246.82" width="35.55" height="3.78"/>
      </g>
    </g>
    <g>
      <g>
        <polygon class="cls-10" points="909.16 252.61 872.71 196.08 923.86 196.08 964.99 228.23 909.16 252.61"/>
        <rect class="cls-14" x="912.28" y="228.21" width="52.7" height="70.94"/>
        <polygon class="cls-1" points="913.84 299.15 872.71 299.15 831.58 299.15 831.58 267.88 831.58 228.23 872.71 196.08 913.84 228.23 913.84 267.88 913.84 299.15"/>
        <rect class="cls-5" x="840.29" y="238.69" width="61.08" height="4.19"/>
        <rect class="cls-5" x="840.29" y="252.58" width="61.08" height="4.19"/>
        <rect class="cls-5" x="840.29" y="266.47" width="61.08" height="4.19"/>
        <rect class="cls-5" x="840.29" y="280.36" width="61.08" height="4.19"/>
        <rect class="cls-5" x="926.98" y="244.97" width="7.22" height="11.99"/>
        <rect class="cls-5" x="926.98" y="266.64" width="7.22" height="11.99"/>
      </g>
      <rect class="cls-5" x="948.15" y="244.97" width="7.22" height="11.99"/>
      <rect class="cls-5" x="948.15" y="266.64" width="7.22" height="11.99"/>
    </g>
    <g>
      <path class="cls-5" d="m1028.57,217.03c-7.81,2.52-23.66,37.27-19.63,53.89,4.03,16.62,19.63,17.88,19.63,17.88,0,0,15.6-1.26,19.63-17.88,4.03-16.62-11.82-51.37-19.63-53.89Z"/>
      <polygon class="cls-10" points="1044.22 260.6 1030.8 274.41 1029.93 256.29 1039.8 239.02 1029.8 253.4 1028.57 227.85 1027.35 253.4 1017.35 239.02 1027.21 256.29 1026.34 274.41 1012.92 260.6 1026.19 277.62 1025.16 299.03 1028.57 299.03 1031.98 299.03 1030.96 277.62 1044.22 260.6"/>
    </g>
    <path class="cls-2" d="m635.84,142.9c-6.85,0-12.9,3-16.52,7.56-3.61-4.57-9.66-7.56-16.52-7.56-11.07,0-20.04,7.81-20.04,17.44h73.12c0-9.63-8.97-17.44-20.04-17.44Z"/>
    <path class="cls-2" d="m670.9,206.83c-3.88,0-7.31,1.7-9.35,4.28-2.05-2.59-5.47-4.28-9.35-4.28-6.27,0-11.35,4.42-11.35,9.87h41.4c0-5.45-5.08-9.87-11.35-9.87Z"/>
    <path class="cls-2" d="m1094.21,198.34c-5.47,0-10.29,2.39-13.18,6.03-2.88-3.64-7.71-6.03-13.18-6.03-8.83,0-15.99,6.23-15.99,13.91h58.33c0-7.68-7.15-13.91-15.99-13.91Z"/>
    <g>
      <g>
        <polygon class="cls-10" points="739.34 209.15 761.84 162.51 696.9 162.51 671.51 189.03 739.34 209.15"/>
        <rect class="cls-2" x="671.51" y="189.02" width="65.91" height="109.97"/>
        <polygon class="cls-14" points="736.45 298.99 761.84 298.99 761.84 162.51 736.45 189.03 736.45 289.26 736.45 298.99"/>
      </g>
      <g>
        <rect class="cls-5" x="724.29" y="197.89" width="5.02" height="10.09" transform="translate(1453.59 405.87) rotate(-180)"/>
        <rect class="cls-5" x="713.06" y="197.89" width="5.02" height="10.09" transform="translate(1431.13 405.87) rotate(-180)"/>
        <rect class="cls-5" x="701.83" y="197.89" width="5.02" height="10.09" transform="translate(1408.67 405.87) rotate(-180)"/>
        <rect class="cls-5" x="690.59" y="197.89" width="5.02" height="10.09" transform="translate(1386.21 405.87) rotate(-180)"/>
        <rect class="cls-5" x="679.36" y="197.89" width="5.02" height="10.09" transform="translate(1363.74 405.87) rotate(-180)"/>
      </g>
      <g>
        <rect class="cls-5" x="724.29" y="216.71" width="5.02" height="10.09" transform="translate(1453.59 443.51) rotate(-180)"/>
        <rect class="cls-5" x="713.06" y="216.71" width="5.02" height="10.09" transform="translate(1431.13 443.51) rotate(-180)"/>
        <rect class="cls-5" x="701.83" y="216.71" width="5.02" height="10.09" transform="translate(1408.67 443.51) rotate(-180)"/>
        <rect class="cls-5" x="690.59" y="216.71" width="5.02" height="10.09" transform="translate(1386.21 443.51) rotate(-180)"/>
        <rect class="cls-5" x="679.36" y="216.71" width="5.02" height="10.09" transform="translate(1363.74 443.51) rotate(-180)"/>
      </g>
      <g>
        <rect class="cls-5" x="724.29" y="235.53" width="5.02" height="10.09" transform="translate(1453.59 481.16) rotate(-180)"/>
        <rect class="cls-5" x="713.06" y="235.53" width="5.02" height="10.09" transform="translate(1431.13 481.16) rotate(-180)"/>
        <rect class="cls-5" x="701.83" y="235.53" width="5.02" height="10.09" transform="translate(1408.67 481.16) rotate(-180)"/>
        <rect class="cls-5" x="690.59" y="235.53" width="5.02" height="10.09" transform="translate(1386.21 481.16) rotate(-180)"/>
        <rect class="cls-5" x="679.36" y="235.53" width="5.02" height="10.09" transform="translate(1363.74 481.16) rotate(-180)"/>
      </g>
      <g>
        <rect class="cls-5" x="724.29" y="254.36" width="5.02" height="10.09" transform="translate(1453.59 518.8) rotate(-180)"/>
        <rect class="cls-5" x="713.06" y="254.36" width="5.02" height="10.09" transform="translate(1431.13 518.8) rotate(-180)"/>
        <rect class="cls-5" x="701.83" y="254.36" width="5.02" height="10.09" transform="translate(1408.67 518.8) rotate(-180)"/>
        <rect class="cls-5" x="690.59" y="254.36" width="5.02" height="10.09" transform="translate(1386.21 518.8) rotate(-180)"/>
        <rect class="cls-5" x="679.36" y="254.36" width="5.02" height="10.09" transform="translate(1363.74 518.8) rotate(-180)"/>
      </g>
    </g>
    <g>
      <path class="cls-5" d="m683.36,266.53s3.61-4.68,2.94-9.89c-.67-5.21-4.81-6.41-7.88-6.41,0,0,.6-12.03-7.32-13.9-7.91,1.87-7.32,13.9-7.32,13.9-3.07,0-7.22,1.2-7.88,6.41-.67,5.21,2.94,9.89,2.94,9.89,0,0-6.15,3.21-3.74,10.82,2.4,7.62,16,10.29,16,10.29,0,0,13.6-2.67,16-10.29,2.41-7.62-3.74-10.82-3.74-10.82Z"/>
      <polygon class="cls-10" points="682.37 271.41 672.71 281.34 672.08 268.31 679.18 255.88 671.98 266.23 671.1 247.84 670.22 266.23 663.03 255.88 670.12 268.31 669.5 281.34 659.84 271.41 669.39 283.66 668.65 299.06 671.1 299.06 673.56 299.06 672.82 283.66 682.37 271.41"/>
    </g>
    <path class="cls-11" d="m697.98,298.97c2.32-7.34,9.17-12.66,17.28-12.66,3.73,0,7.19,1.13,10.07,3.06,2.67-7.96,10.18-13.69,19.03-13.69,9.41,0,17.31,6.48,19.48,15.22,2.43-2.33,5.73-3.76,9.36-3.76,6.9,0,12.58,5.16,13.43,11.83h-88.65Z"/>
    <path class="cls-11" d="m1081.79,298.97c1.93-6.11,7.63-10.53,14.38-10.53,3.1,0,5.99.94,8.38,2.55,2.22-6.62,8.47-11.39,15.84-11.39,7.83,0,14.41,5.39,16.21,12.67,2.02-1.94,4.77-3.13,7.79-3.13,5.74,0,10.47,4.29,11.17,9.84h-73.78Z"/>
    <path class="cls-10" d="m420.48,547.38c.03-10.39-4.53-20.63-12.22-27.6,0,0,0,0,0,0-12.43-11.87-33.67-12.94-47.13-2.71l-18-21.31c.46-1.64,2.34-4.56.92-6.17l.89-2.4c4.61,3.51,12.67,2.14,12.73-4.62,0-2.06-1.68-3.74-3.74-3.74h-18.91c-1.57,0-2.85,1.28-2.85,2.85s1.28,2.85,2.85,2.85c2.25,0,5.11-.19,7.15.87l-1.14,3.07c-2.06.29-2.54,3.47-3.22,4.99h-66.64c.17-.47,1.43-3.85,1.63-4.4.34-.9.19-1.93-.37-2.7.13-1.04,3.22-6.86,2.16-7.81.63-1.41-20.53-.4-20.96-.69-13.68.24-13.68,20.57,0,20.82,0,0,6.17,0,6.17,0,2.08.02,2.08-3.24,0-3.21,0,0-6.18,0-6.18,0-9.46-.17-9.46-14.23,0-14.4,0,0,17.33,0,17.33,0l-1.55,4.17c-.93.22-1.71.91-2.04,1.81l-4.06,10.94c-1.1,2.96-3.93,10.59-4.99,13.46-39.13-10.73-65.08,39.19-33.92,65.07,23.83,19.91,61.5,2.07,61.09-29.06.04-10.41-4.51-20.69-12.22-27.68,0,0,0,0,0,0-2.84-2.57-6.06-4.73-9.54-6.33.56-1.51,1.97-5.32,2.51-6.77l43.24,35.25c-3.94,7.58,1.6,17.46,10.06,18.08v3.57h-4.25c-.35,0-.64.29-.64.64v4.12c0,.35.29.64.64.64h11.07c.35,0,.64-.29.64-.64v-4.12c0-.35-.29-.64-.64-.64h-4.25v-3.57c5.39-.55,9.79-4.5,11-9.67h12.54c.73,10.33,6.04,20.2,14.2,26.56,23.95,19.36,61.08,1.32,60.58-29.53Zm-172.09-9.09v-17.33c2.11.03,4.17.3,6.14.79l-6.14,16.54Zm-.64,1.73l-.74,2.01c-.18.03-.35.08-.52.13l-7.18-19.71c2.65-.93,5.49-1.45,8.44-1.48v19.06Zm.31-19.07s0,0,.01,0h-.01Zm-9.36,1.71l7.18,19.71c-.4.17-.77.39-1.11.65l-13.49-16.07c2.21-1.81,4.71-3.26,7.42-4.29Zm0,0c.18-.07.37-.14.55-.2l-.55.2Zm-7.91,4.71l13.48,16.07c-.31.29-.59.62-.83.98l-18.17-10.49c1.47-2.48,3.34-4.69,5.51-6.56Zm-5.83,7.12l18.17,10.49c-.19.38-.34.78-.44,1.21l-20.66-3.64c.54-2.88,1.54-5.59,2.93-8.06Zm-3.04,8.69l20.66,3.64c-.05.42-.05.87,0,1.29l-20.66,3.64c-.46-2.78-.46-5.8,0-8.57Zm20.77,5.56c.1.42.25.83.44,1.21l-18.17,10.49c-1.39-2.47-2.39-5.18-2.93-8.06l20.66-3.64Zm.76,1.77c.24.36.52.69.83.98l-13.48,16.07c-2.17-1.87-4.04-4.08-5.51-6.56l18.17-10.49Zm1.32,1.4c.34.26.71.48,1.11.65l-7.18,19.71c-2.71-1.03-5.22-2.48-7.42-4.29l13.49-16.07Zm1.71.87c.4.12.83.19,1.27.22v20.98c-2.96-.04-5.8-.55-8.44-1.48l7.18-19.71Zm-7.22,19.7c-.19-.07-.37-.13-.55-.2l.55.2Zm8.82,1.51h-.01.01Zm.31-20.99c.44-.03.86-.1,1.27-.22l7.18,19.71c-2.65.93-5.49,1.45-8.44,1.48v-20.98Zm9.05,19.28l-7.18-19.71c.4-.17.77-.39,1.11-.65l13.49,16.07c-2.21,1.81-4.71,3.26-7.42,4.29Zm0,0c-.18.07-.37.14-.55.2l.55-.2Zm7.91-4.71l-13.48-16.07c.31-.29.59-.62.83-.98l18.17,10.49c-1.47,2.48-3.34,4.69-5.51,6.56Zm5.83-7.12l-18.17-10.49c.19-.38.34-.78.44-1.21l20.66,3.64c-.54,2.88-1.54,5.59-2.93,8.05Zm3.04-8.69l-20.66-3.64c.05-.42.05-.87,0-1.29l20.66-3.64c.46,2.78.46,5.8,0,8.57Zm-20.77-5.56c-.1-.42-.25-.83-.44-1.21l18.17-10.49c1.39,2.47,2.39,5.18,2.93,8.05l-20.66,3.64Zm-.76-1.77c-.09-.13-.18-.26-.28-.38l.84-2.27,12.09-14.4c2.17,1.87,4.04,4.08,5.51,6.56l-18.17,10.49Zm1.23-4.44l6.02-16.22c1.76.88,3.41,1.95,4.92,3.19l-10.93,13.03Zm15.12-40.74h66.64l-13.25,35.7c-3.31-.45-6.77.57-9.26,2.52l-44.77-36.5.64-1.72Zm58.81,37.71l12.97-34.97,15.9,18.82c-6.24,6.16-10.32,14.49-11.03,23.77h-12.54c-.74-3.16-2.68-5.87-5.31-7.62Zm39.97,3.45c-.72,1.55-1.92,2.75-3.39,3.45l-7.45-1.31c.54-2.88,1.54-5.59,2.93-8.06l8.32,4.8c-.11.38-.24.75-.41,1.11Zm-10.95,2.77l6.39,1.13c-1.3.46-5.18.21-6.58.27.05-.47.12-.94.19-1.4Zm9.92-10.46c1.42,1.68,1.97,3.83,1.59,5.92l-8.15-4.7c1.02-1.71,2.22-3.29,3.59-4.73l2.97,3.52Zm21.18,12.26l18.17-10.49c1.39,2.47,2.39,5.18,2.93,8.05l-20.66,3.64c-.1-.42-.25-.83-.44-1.21Zm-.32-.56c-.24-.36-.52-.69-.83-.98l13.48-16.07c2.17,1.87,4.04,4.08,5.51,6.56l-18.17,10.49Zm-1.32-1.4c-.34-.26-.71-.48-1.11-.65l7.18-19.71c2.71,1.03,5.22,2.48,7.42,4.29l-13.49,16.07Zm-1.71-.87c-.4-.12-.83-.19-1.27-.22v-20.98c2.96.04,5.8.55,8.44,1.48l-7.18,19.71Zm7.22-19.7c.19.07.37.13.55.2l-.55-.2Zm-8.82-1.51s0,0,.01,0h-.01Zm-.31,20.99c-.17,0-.35.03-.52.05l-1.43-1.69-6.5-17.86c2.65-.93,5.49-1.45,8.44-1.48v20.98Zm-9.05-19.28l5.91,16.22-11.34-13.42c1.68-1.13,3.5-2.08,5.43-2.8Zm0,0c.18-.07.37-.14.55-.2l-.55.2Zm-8.87,27.69l-7.93,1.4c-.08-.46-.14-.93-.19-1.4h8.12Zm3.7,0h8.89l-17.47,10.08c-1.39-2.47-2.39-5.18-2.93-8.06l11.51-2.03Zm9.91.15c.24.36.52.69.83.98l-13.48,16.07c-2.17-1.87-4.04-4.08-5.51-6.56l18.17-10.49Zm1.32,1.4c.34.26.71.48,1.11.65l-7.18,19.71c-2.71-1.03-5.22-2.48-7.42-4.29l13.49-16.07Zm1.71.87c.4.12.83.19,1.27.22v20.98c-2.96-.04-5.8-.55-8.44-1.48l7.18-19.71Zm-7.22,19.7c-.19-.07-.37-.13-.55-.2l.55.2Zm8.82,1.51h-.01.01Zm.31-20.99c.44-.03.86-.1,1.27-.22l7.18,19.71c-2.65.93-5.49,1.45-8.44,1.48v-20.98Zm9.05,19.28l-7.18-19.71c.4-.17.77-.39,1.11-.65l13.49,16.07c-2.21,1.81-4.71,3.26-7.42,4.29Zm0,0c-.18.07-.37.14-.55.2l.55-.2Zm7.91-4.71l-13.48-16.07c.31-.29.59-.62.83-.98l18.17,10.49c-1.47,2.48-3.34,4.69-5.51,6.56Zm5.83-7.12l-18.17-10.49c.19-.38.34-.78.44-1.21l20.66,3.64c-.54,2.88-1.54,5.59-2.93,8.05Zm3.04-8.69l-20.66-3.64c.05-.42.05-.87,0-1.29l20.66-3.64c.46,2.78.46,5.8,0,8.57Z"/>
    <g>
      <path class="cls-8" d="m125.12,207.59c0,1.81-19.57,3.28-43.72,3.28s-43.72-1.47-43.72-3.28,19.57-3.28,43.72-3.28,43.72,1.47,43.72,3.28Z"/>
      <polygon class="cls-7" points="69.24 207.16 95.18 207.16 82.21 183.98 69.24 160.79 56.28 183.98 43.31 207.16 69.24 207.16"/>
      <polygon class="cls-3" points="77.55 175.65 69.24 160.79 60.93 175.65 77.55 175.65"/>
      <polygon class="cls-10" points="99.21 207.16 120.33 207.16 109.77 188.28 99.21 169.39 88.65 188.28 78.09 207.16 99.21 207.16"/>
      <polygon class="cls-3" points="105.98 181.5 99.21 169.39 92.44 181.5 105.98 181.5"/>
    </g>
    <g>
      <g>
        <path class="cls-3" d="m468.06,153.02s-16.24-27.06-12.94-62.4c3.31-35.35,11.87-57.59,12.94-78.37v140.78Z"/>
        <path class="cls-11" d="m468.06,153.02s16.24-27.06,12.94-62.4c-3.31-35.35-11.87-57.59-12.94-78.37v140.78Z"/>
      </g>
      <g>
        <g>
          <g>
            <path class="cls-3" d="m523.46,114.71c-6.58-1.26-12.94-.35-24.71,18.7-13.28,21.5-38.65,17.83-38.65,17.83,43.97,8.17,40.83-24.54,56.92-27.81,16.1-3.27,18.19,15.88,18.19,15.88,1.99-12.94-4.93-23.3-11.76-24.61Z"/>
            <path class="cls-11" d="m534.82,114.52c-6.64-13.39-20.39-17.33-29.87-10.13-7.81,5.92-9.64,19.18-17.7,30.61-7.75,11.01-17.83,14.34-27.15,16.25,0,0,25.37,3.67,38.65-17.83,11.77-19.06,18.13-19.97,24.71-18.7,6.83,1.31,13.74,11.67,11.76,24.61.69-2,4.76-14.4-.4-24.8Z"/>
          </g>
          <g>
            <path class="cls-3" d="m412.66,114.71c6.58-1.26,12.94-.35,24.71,18.7,13.28,21.5,38.65,17.83,38.65,17.83-43.97,8.17-40.83-24.54-56.92-27.81-16.1-3.27-18.19,15.88-18.19,15.88-1.99-12.94,4.93-23.3,11.76-24.61Z"/>
            <path class="cls-11" d="m401.3,114.52c6.64-13.39,20.39-17.33,29.87-10.13,7.81,5.92,9.64,19.18,17.7,30.61,7.75,11.01,17.83,14.34,27.15,16.25,0,0-25.37,3.67-38.65-17.83-11.77-19.06-18.13-19.97-24.71-18.7-6.83,1.31-13.74,11.67-11.76,24.61-.69-2-4.76-14.4.4-24.8Z"/>
          </g>
        </g>
        <g>
          <g>
            <path class="cls-11" d="m442.43,85.14c21.93,24.83-2.18,49.49,23.38,64.5.74.35,1.49.69,2.25,1-3.58-3.6-5.6-9.09-5.99-14.29-.58-7.75,1.41-15.47,1.36-23.24-.08-11.78-5.11-23.46-13.61-31.61-8.51-8.16-20.38-12.69-32.16-12.27-10.73-.7-22.75,4.02-29.42,12.46,0,0,30.78-23.06,54.19,3.45Z"/>
            <path class="cls-3" d="m442.43,85.14c-23.41-26.51-54.19-3.45-54.19-3.45,7.81-1.78,15.01-3.22,22.92-1.97,7.91,1.24,15.7,5.38,19.7,12.32,3.55,6.17,3.73,13.63,5.23,20.6,3.46,16.04,14.93,30.03,29.72,37.01-25.56-15.01-1.45-39.67-23.38-64.5Z"/>
          </g>
          <g>
            <path class="cls-11" d="m493.69,85.14c-21.93,24.83,2.18,49.49-23.38,64.5-.74.35-1.49.69-2.25,1,3.58-3.6,5.6-9.09,5.99-14.29.58-7.75-1.41-15.47-1.36-23.24.08-11.78,5.11-23.46,13.61-31.61,8.51-8.16,20.38-12.69,32.16-12.27,10.73-.7,22.75,4.02,29.42,12.46,0,0-30.78-23.06-54.19,3.45Z"/>
            <path class="cls-3" d="m493.69,85.14c23.41-26.51,54.19-3.45,54.19-3.45-7.81-1.78-15.01-3.22-22.92-1.97-7.91,1.24-15.7,5.38-19.7,12.32-3.55,6.17-3.73,13.63-5.23,20.6-3.46,16.04-14.93,30.03-29.72,37.01,25.56-15.01,1.45-39.67,23.38-64.5Z"/>
          </g>
        </g>
      </g>
    </g>
    <polygon class="cls-4" points="9.84 225.18 18.68 225.18 466.96 225.18 466.96 302.18 8.1 302.18 7.81 302.18 7.81 282.83 7.81 278.22 7.81 227.58 9.84 225.18"/>
    <g>
      <g>
        <path class="cls-12" d="m405.77,240.85c-8.71-2.51-17.69-5.11-35.49-5.11s-26.79,2.6-35.48,5.11c-8.19,2.36-15.93,4.6-31.74,4.6s-23.55-2.23-31.74-4.6c-8.7-2.51-17.7-5.11-35.5-5.11s-26.79,2.6-35.48,5.11c-8.19,2.36-15.93,4.6-31.74,4.6s-23.57-2.23-31.75-4.6c-8.71-2.51-17.7-5.11-35.51-5.11s-26.82,2.6-35.51,5.11c-8.2,2.36-15.93,4.6-31.76,4.6v4.85c17.81,0,26.81-2.6,35.51-5.11,8.19-2.37,15.93-4.6,31.76-4.6s23.56,2.23,31.75,4.6c8.7,2.51,17.7,5.11,35.51,5.11s26.8-2.6,35.5-5.11c8.19-2.37,15.91-4.6,31.73-4.6s23.55,2.23,31.75,4.6c8.7,2.51,17.7,5.11,35.5,5.11s26.8-2.6,35.5-5.11c8.19-2.37,15.91-4.6,31.72-4.6s23.54,2.23,31.72,4.6c8.7,2.51,17.69,5.11,35.48,5.11v-4.85c-15.81,0-23.54-2.23-31.72-4.6Z"/>
        <path class="cls-12" d="m370.28,256.4c-17.79,0-26.79,2.6-35.48,5.11-8.19,2.37-15.93,4.6-31.74,4.6s-23.55-2.23-31.74-4.6c-8.7-2.51-17.7-5.11-35.5-5.11s-26.79,2.6-35.48,5.11c-8.19,2.37-15.93,4.6-31.74,4.6s-23.57-2.23-31.75-4.6c-8.71-2.51-17.7-5.11-35.51-5.11s-26.82,2.6-35.51,5.11c-8.2,2.37-15.93,4.6-31.76,4.6v4.85c17.81,0,26.81-2.6,35.51-5.11,8.19-2.37,15.93-4.6,31.76-4.6s23.56,2.23,31.75,4.6c8.7,2.51,17.7,5.11,35.51,5.11s26.8-2.6,35.5-5.11c8.19-2.37,15.91-4.6,31.73-4.6s23.55,2.23,31.75,4.6c8.7,2.51,17.7,5.11,35.5,5.11s26.8-2.6,35.5-5.11c8.19-2.37,15.91-4.6,31.72-4.6s23.54,2.23,31.72,4.6c8.7,2.51,17.69,5.11,35.48,5.11v-4.85c-15.81,0-23.54-2.23-31.72-4.6-8.71-2.51-17.69-5.11-35.49-5.11Z"/>
        <path class="cls-12" d="m370.28,277.06c-17.79,0-26.79,2.6-35.48,5.11-8.19,2.36-15.93,4.6-31.74,4.6s-23.55-2.23-31.74-4.6c-8.7-2.51-17.7-5.11-35.5-5.11s-26.79,2.6-35.48,5.11c-8.19,2.36-15.93,4.6-31.74,4.6s-23.57-2.23-31.75-4.6c-8.71-2.51-17.7-5.11-35.51-5.11s-26.82,2.6-35.51,5.11c-8.2,2.36-15.93,4.6-31.76,4.6v4.85c17.81,0,26.81-2.6,35.51-5.11,8.19-2.37,15.93-4.6,31.76-4.6s23.56,2.23,31.75,4.6c8.7,2.51,17.7,5.11,35.51,5.11s26.8-2.6,35.5-5.11c8.19-2.37,15.91-4.6,31.73-4.6s23.55,2.23,31.75,4.6c8.7,2.51,17.7,5.11,35.5,5.11s26.8-2.6,35.5-5.11c8.19-2.37,15.91-4.6,31.72-4.6s23.54,2.23,31.72,4.6c8.7,2.51,17.69,5.11,35.48,5.11v-4.85c-15.81,0-23.54-2.23-31.72-4.6-8.71-2.51-17.69-5.11-35.49-5.11Z"/>
      </g>
      <g>
        <path class="cls-15" d="m405.77,240.85c-8.71-2.51-17.69-5.11-35.49-5.11s-26.79,2.6-35.48,5.11c-8.19,2.36-15.93,4.6-31.74,4.6s-23.55-2.23-31.74-4.6c-8.7-2.51-17.7-5.11-35.5-5.11s-26.79,2.6-35.48,5.11c-8.19,2.36-15.93,4.6-31.74,4.6s-23.57-2.23-31.75-4.6c-8.71-2.51-17.7-5.11-35.51-5.11s-26.82,2.6-35.51,5.11c-8.2,2.36-15.93,4.6-31.76,4.6v4.85c17.81,0,26.81-2.6,35.51-5.11,8.19-2.37,15.93-4.6,31.76-4.6s23.56,2.23,31.75,4.6c8.7,2.51,17.7,5.11,35.51,5.11s26.8-2.6,35.5-5.11c8.19-2.37,15.91-4.6,31.73-4.6s23.55,2.23,31.75,4.6c8.7,2.51,17.7,5.11,35.5,5.11s26.8-2.6,35.5-5.11c8.19-2.37,15.91-4.6,31.72-4.6s23.54,2.23,31.72,4.6c8.7,2.51,17.69,5.11,35.48,5.11v-4.85c-15.81,0-23.54-2.23-31.72-4.6Z"/>
        <path class="cls-15" d="m370.28,256.4c-17.79,0-26.79,2.6-35.48,5.11-8.19,2.37-15.93,4.6-31.74,4.6s-23.55-2.23-31.74-4.6c-8.7-2.51-17.7-5.11-35.5-5.11s-26.79,2.6-35.48,5.11c-8.19,2.37-15.93,4.6-31.74,4.6s-23.57-2.23-31.75-4.6c-8.71-2.51-17.7-5.11-35.51-5.11s-26.82,2.6-35.51,5.11c-8.2,2.37-15.93,4.6-31.76,4.6v4.85c17.81,0,26.81-2.6,35.51-5.11,8.19-2.37,15.93-4.6,31.76-4.6s23.56,2.23,31.75,4.6c8.7,2.51,17.7,5.11,35.51,5.11s26.8-2.6,35.5-5.11c8.19-2.37,15.91-4.6,31.73-4.6s23.55,2.23,31.75,4.6c8.7,2.51,17.7,5.11,35.5,5.11s26.8-2.6,35.5-5.11c8.19-2.37,15.91-4.6,31.72-4.6s23.54,2.23,31.72,4.6c8.7,2.51,17.69,5.11,35.48,5.11v-4.85c-15.81,0-23.54-2.23-31.72-4.6-8.71-2.51-17.69-5.11-35.49-5.11Z"/>
        <path class="cls-15" d="m370.28,277.06c-17.79,0-26.79,2.6-35.48,5.11-8.19,2.36-15.93,4.6-31.74,4.6s-23.55-2.23-31.74-4.6c-8.7-2.51-17.7-5.11-35.5-5.11s-26.79,2.6-35.48,5.11c-8.19,2.36-15.93,4.6-31.74,4.6s-23.57-2.23-31.75-4.6c-8.71-2.51-17.7-5.11-35.51-5.11s-26.82,2.6-35.51,5.11c-8.2,2.36-15.93,4.6-31.76,4.6v4.85c17.81,0,26.81-2.6,35.51-5.11,8.19-2.37,15.93-4.6,31.76-4.6s23.56,2.23,31.75,4.6c8.7,2.51,17.7,5.11,35.51,5.11s26.8-2.6,35.5-5.11c8.19-2.37,15.91-4.6,31.73-4.6s23.55,2.23,31.75,4.6c8.7,2.51,17.7,5.11,35.5,5.11s26.8-2.6,35.5-5.11c8.19-2.37,15.91-4.6,31.72-4.6s23.54,2.23,31.72,4.6c8.7,2.51,17.69,5.11,35.48,5.11v-4.85c-15.81,0-23.54-2.23-31.72-4.6-8.71-2.51-17.69-5.11-35.49-5.11Z"/>
      </g>
    </g>
  </g>
</svg>