<?xml version="1.0" encoding="UTF-8"?>
<svg id="Capa_2" data-name="Capa 2" xmlns="http://www.w3.org/2000/svg" xmlns:xlink="http://www.w3.org/1999/xlink" viewBox="0 0 1232.73 603.31">
  <defs>
    <style>
      .cls-1 {
        filter: url(#drop-shadow-1);
      }

      .cls-1, .cls-2, .cls-3 {
        fill: #8e3143;
      }

      .cls-4 {
        fill: #f4f4f4;
      }

      .cls-5 {
        fill: #fff;
      }

      .cls-6 {
        fill: #b19162;
      }

      .cls-3 {
        filter: url(#drop-shadow-2);
      }

      .cls-7 {
        fill: #d4c2a9;
      }

      .cls-8 {
        fill: #ddd0ab;
      }

      .cls-9 {
        fill: #e1d4b9;
      }

      .cls-10 {
        fill: #5d2433;
      }

      .cls-11 {
        fill: #d6c6ad;
      }

      .cls-12 {
        fill: #c4ac89;
      }

      .cls-13 {
        fill: #e9dfcc;
      }

      .cls-14 {
        fill: #d7c5a2;
      }
    </style>
    <filter id="drop-shadow-1" filterUnits="userSpaceOnUse">
      <feOffset dx="2.83" dy="2.83"/>
      <feGaussianBlur result="blur" stdDeviation="2.83"/>
      <feFlood flood-color="#000" flood-opacity=".3"/>
      <feComposite in2="blur" operator="in"/>
      <feComposite in="SourceGraphic"/>
    </filter>
    <filter id="drop-shadow-2" filterUnits="userSpaceOnUse">
      <feOffset dx="2.83" dy="2.83"/>
      <feGaussianBlur result="blur-2" stdDeviation="2.83"/>
      <feFlood flood-color="#000" flood-opacity=".3"/>
      <feComposite in2="blur-2" operator="in"/>
      <feComposite in="SourceGraphic"/>
    </filter>
  </defs>
  <g id="Capa_1-2" data-name="Capa 1">
    <rect class="cls-10" x="771.15" width="306.59" height="152.11" transform="translate(1848.89 152.11) rotate(180)"/>
    <g>
      <path class="cls-6" d="m1034.63,35.11c-5.51-2.75-11.19-5.6-22.44-5.6s-16.94,2.85-22.44,5.6c-5.18,2.59-10.07,5.03-20.07,5.03s-14.9-2.44-20.07-5.03c-5.5-2.75-11.19-5.6-22.45-5.6s-16.94,2.85-22.44,5.6c-5.18,2.59-10.07,5.03-20.07,5.03s-14.9-2.45-20.08-5.03c-5.51-2.75-11.19-5.6-22.46-5.6s-16.96,2.85-22.46,5.6c-5.19,2.59-10.08,5.03-20.09,5.03v5.32c11.26,0,16.96-2.85,22.46-5.6,5.18-2.59,10.08-5.04,20.09-5.04s14.9,2.45,20.08,5.04c5.5,2.75,11.19,5.6,22.46,5.6s16.95-2.85,22.45-5.6c5.18-2.59,10.06-5.04,20.07-5.04s14.9,2.45,20.08,5.04c5.5,2.75,11.19,5.6,22.45,5.6s16.95-2.85,22.45-5.6c5.18-2.59,10.06-5.04,20.06-5.04s14.89,2.45,20.06,5.04c5.5,2.75,11.19,5.6,22.44,5.6v-5.32c-10,0-14.88-2.44-20.06-5.03Z"/>
      <path class="cls-6" d="m1012.19,52.14c-11.25,0-16.94,2.85-22.44,5.6-5.18,2.59-10.07,5.03-20.07,5.03s-14.9-2.44-20.07-5.03c-5.5-2.75-11.19-5.6-22.45-5.6s-16.94,2.85-22.44,5.6c-5.18,2.59-10.07,5.03-20.07,5.03s-14.9-2.45-20.08-5.03c-5.51-2.75-11.19-5.6-22.46-5.6s-16.96,2.85-22.46,5.6c-5.19,2.59-10.08,5.03-20.09,5.03v5.32c11.26,0,16.96-2.84,22.46-5.6,5.18-2.59,10.08-5.04,20.09-5.04s14.9,2.44,20.08,5.04c5.5,2.75,11.19,5.6,22.46,5.6s16.95-2.84,22.45-5.6c5.18-2.59,10.06-5.04,20.07-5.04s14.9,2.45,20.08,5.04c5.5,2.75,11.19,5.6,22.45,5.6s16.95-2.84,22.45-5.6c5.18-2.59,10.06-5.04,20.06-5.04s14.89,2.44,20.06,5.04c5.5,2.75,11.19,5.6,22.44,5.6v-5.32c-10,0-14.88-2.44-20.06-5.03-5.51-2.75-11.19-5.6-22.44-5.6Z"/>
      <path class="cls-6" d="m1012.19,74.76c-11.25,0-16.94,2.84-22.44,5.6-5.18,2.59-10.07,5.03-20.07,5.03s-14.9-2.44-20.07-5.03c-5.5-2.75-11.19-5.6-22.45-5.6s-16.94,2.84-22.44,5.6c-5.18,2.59-10.07,5.03-20.07,5.03s-14.9-2.44-20.08-5.03c-5.51-2.75-11.19-5.6-22.46-5.6s-16.96,2.84-22.46,5.6c-5.19,2.59-10.08,5.03-20.09,5.03v5.32c11.26,0,16.96-2.85,22.46-5.6,5.18-2.59,10.08-5.04,20.09-5.04s14.9,2.44,20.08,5.04c5.5,2.75,11.19,5.6,22.46,5.6s16.95-2.85,22.45-5.6c5.18-2.59,10.06-5.04,20.07-5.04s14.9,2.45,20.08,5.04c5.5,2.75,11.19,5.6,22.45,5.6s16.95-2.85,22.45-5.6c5.18-2.59,10.06-5.04,20.06-5.04s14.89,2.44,20.06,5.04c5.5,2.75,11.19,5.6,22.44,5.6v-5.32c-10,0-14.88-2.44-20.06-5.03-5.51-2.75-11.19-5.6-22.44-5.6Z"/>
      <path class="cls-6" d="m1012.19,97.39c-11.25,0-16.94,2.85-22.44,5.6-5.18,2.59-10.07,5.04-20.07,5.04s-14.9-2.44-20.07-5.04c-5.5-2.75-11.19-5.6-22.45-5.6s-16.94,2.85-22.44,5.6c-5.18,2.59-10.07,5.04-20.07,5.04s-14.9-2.45-20.08-5.04c-5.51-2.75-11.19-5.6-22.46-5.6s-16.96,2.85-22.46,5.6c-5.19,2.59-10.08,5.04-20.09,5.04v5.31c11.26,0,16.96-2.85,22.46-5.6,5.18-2.59,10.08-5.04,20.09-5.04s14.9,2.44,20.08,5.04c5.5,2.75,11.19,5.6,22.46,5.6s16.95-2.85,22.45-5.6c5.18-2.59,10.06-5.04,20.07-5.04s14.9,2.45,20.08,5.04c5.5,2.75,11.19,5.6,22.45,5.6s16.95-2.85,22.45-5.6c5.18-2.59,10.06-5.04,20.06-5.04s14.89,2.44,20.06,5.04c5.5,2.75,11.19,5.6,22.44,5.6v-5.31c-10,0-14.88-2.44-20.06-5.04-5.51-2.75-11.19-5.6-22.44-5.6Z"/>
    </g>
    <rect class="cls-6" x="6.54" width="153.03" height="152.11"/>
    <rect class="cls-13" x="159.37" width="306.4" height="152.11"/>
    <rect class="cls-8" x="465.87" width="153.03" height="152.11"/>
    <rect class="cls-6" x="618.94" width="153.03" height="152.11"/>
    <g>
      <g>
        <path class="cls-6" d="m466.97,153.02s-16.24-27.06-12.94-62.4c3.31-35.35,11.87-57.59,12.94-78.37v140.78Z"/>
        <path class="cls-10" d="m466.97,153.02s16.24-27.06,12.94-62.4c-3.31-35.35-11.87-57.59-12.94-78.37v140.78Z"/>
      </g>
      <g>
        <g>
          <g>
            <path class="cls-6" d="m522.37,114.71c-6.58-1.26-12.94-.35-24.71,18.7-13.28,21.5-38.65,17.83-38.65,17.83,43.97,8.17,40.83-24.54,56.92-27.81,16.1-3.27,18.19,15.88,18.19,15.88,1.99-12.94-4.93-23.3-11.76-24.61Z"/>
            <path class="cls-10" d="m533.73,114.52c-6.64-13.39-20.39-17.33-29.87-10.13-7.81,5.92-9.64,19.18-17.7,30.61-7.75,11.01-17.83,14.34-27.15,16.25,0,0,25.37,3.67,38.65-17.83,11.77-19.06,18.13-19.97,24.71-18.7,6.83,1.31,13.74,11.67,11.76,24.61.69-2,4.76-14.4-.4-24.8Z"/>
          </g>
          <g>
            <path class="cls-6" d="m411.57,114.71c6.58-1.26,12.94-.35,24.71,18.7,13.28,21.5,38.65,17.83,38.65,17.83-43.97,8.17-40.83-24.54-56.92-27.81-16.1-3.27-18.19,15.88-18.19,15.88-1.99-12.94,4.93-23.3,11.76-24.61Z"/>
            <path class="cls-10" d="m400.21,114.52c6.64-13.39,20.39-17.33,29.87-10.13,7.81,5.92,9.64,19.18,17.7,30.61,7.75,11.01,17.83,14.34,27.15,16.25,0,0-25.37,3.67-38.65-17.83-11.77-19.06-18.13-19.97-24.71-18.7-6.83,1.31-13.74,11.67-11.76,24.61-.69-2-4.76-14.4.4-24.8Z"/>
          </g>
        </g>
        <g>
          <g>
            <path class="cls-10" d="m441.34,85.14c21.93,24.83-2.18,49.49,23.38,64.5.74.35,1.49.69,2.25,1-3.58-3.6-5.6-9.09-5.99-14.29-.58-7.75,1.41-15.47,1.36-23.24-.08-11.78-5.11-23.46-13.61-31.61-8.51-8.16-20.38-12.69-32.16-12.27-10.73-.7-22.75,4.02-29.42,12.46,0,0,30.78-23.06,54.19,3.45Z"/>
            <path class="cls-6" d="m441.34,85.14c-23.41-26.51-54.19-3.45-54.19-3.45,7.81-1.78,15.01-3.22,22.92-1.97,7.91,1.24,15.7,5.38,19.7,12.32,3.55,6.17,3.73,13.63,5.23,20.6,3.46,16.04,14.93,30.03,29.72,37.01-25.56-15.01-1.45-39.67-23.38-64.5Z"/>
          </g>
          <g>
            <path class="cls-10" d="m492.6,85.14c-21.93,24.83,2.18,49.49-23.38,64.5-.74.35-1.49.69-2.25,1,3.58-3.6,5.6-9.09,5.99-14.29.58-7.75-1.41-15.47-1.36-23.24.08-11.78,5.11-23.46,13.61-31.61,8.51-8.16,20.38-12.69,32.16-12.27,10.73-.7,22.75,4.02,29.42,12.46,0,0-30.78-23.06-54.19,3.45Z"/>
            <path class="cls-6" d="m492.6,85.14c23.41-26.51,54.19-3.45,54.19-3.45-7.81-1.78-15.01-3.22-22.92-1.97-7.91,1.24-15.7,5.38-19.7,12.32-3.55,6.17-3.73,13.63-5.23,20.6-3.46,16.04-14.93,30.03-29.72,37.01,25.56-15.01,1.45-39.67,23.38-64.5Z"/>
          </g>
        </g>
      </g>
    </g>
    <g>
      <path class="cls-2" d="m79.6,22.99c-10.54,3.4-31.93,50.28-26.49,72.71s26.49,24.12,26.49,24.12c0,0,21.05-1.7,26.49-24.12,5.44-22.42-15.95-69.31-26.49-72.71Z"/>
      <polygon class="cls-13" points="100.71 81.79 82.61 100.41 81.44 75.97 94.74 52.67 81.25 72.08 79.6 37.59 77.95 72.08 64.45 52.67 77.76 75.97 76.59 100.41 58.48 81.79 76.38 104.76 75 133.64 79.6 133.64 84.2 133.64 82.81 104.76 100.71 81.79"/>
    </g>
    <g>
      <path class="cls-2" d="m696.91,14.79c-.35-.92-1.66-.92-2.01,0-8.59,22.35-29.81,32.3-29.81,57.82,0,17.02,13.79,30.82,30.81,30.82s30.82-13.8,30.82-30.82c0-25.52-21.22-35.47-29.81-57.82Zm-17.82,71.01c-1.28,1.85-4.03,1.74-5.19-.18-2.32-3.86-3.66-8.38-3.66-13.21,0-7.03,1.93-12.64,4.78-17.68-3.34,13.44-.33,22.02,3.93,27.37.85,1.07.92,2.57.14,3.7Zm9.41,8.03c-.68,1.06-1.83,1.64-3,1.64-.57,0-1.13-.13-1.66-.41-.3-.16-.6-.33-.89-.5-1.67-.97-2.27-3.08-1.34-4.78.65-1.18,1.86-1.84,3.11-1.84.59,0,1.19.14,1.74.45.23.12.45.24.67.36,1.87.95,2.5,3.31,1.37,5.08Z"/>
      <ellipse class="cls-2" cx="695.9" cy="119.35" rx="21.94" ry="4.75"/>
      <path class="cls-2" d="m721.47,115.78c4.5.46,15.15,1.84,17.17,6.28.69,1.49.16,3.19-.92,4.32-4.79,4.96-19.21,6.85-26.08,7.55-14.39,1.29-29.02,1.01-43.22-1.81-4.24-.95-12.89-2.94-15.02-6.95-.81-1.55-.35-3.26.88-4.42,2.17-2.02,5.51-2.89,8.31-3.56,2.58-.58,5.18-.94,7.78-1.18.19-.02.35.12.37.31.02.17-.1.32-.26.36-3.71.95-7.47,1.95-10.94,3.56-1.09.5-4.58,2.3-3.66,3.6,3.22,3.97,19.22,5.44,24.65,5.84,7.67.56,15.38.66,23.06.39,7.62-.3,15.37-.91,22.8-2.46,2.61-.59,7.81-1.78,9.4-3.83.35-.46-.03-.91-.36-1.28-.87-.91-2.08-1.53-3.24-2.08-1.12-.52-2.3-.97-3.5-1.39-2.42-.83-4.92-1.49-7.41-2.1-.69-.18-.5-1.19.19-1.13h0Z"/>
    </g>
    <g>
      <path class="cls-14" d="m348.56,107.96c-.67-.64-.97-2.15-.69-3.04.22.58.56,1.22,1.05,1.63.55.46,1.14.47,1.74.54.28-.07.57-.13.84-.19.85-.19,2.12-.57,2.97-.21.18.08.34.18.5.31.39,0,.76-.09,1.14-.45.51-.48.54-1.35.96-1.76.51.38.67.94.64,1.52-.03.71-.45,1.08-.63,1.72,1.95-.78,2.5,1.56,3.76,2.36-1.25.83-3.02.73-4.36,0,.15,1.1.56,2.5,1.12,3.46.49.84,1.46,1.03,2.34,1.21.87.18,1.75.42,2.63.56,1.39.22,2.7.06,4.09.06,2.01,0,3.78-.13,5.75-.54,1.8-.37,3.59-.85,5.42-1,1.2-.1,2.43.1,3.59.42.69.19,1.4.34,2.03.7.59.33.85.34,1.48.44,1.36.23,1.9,1.62,2.72,2.52,1,1.08,3,.84,3.42,2.88.17.82-.13,2.15-.68,2.72-.08-1.04-.99-2.44-2.19-2.35-.11,1.97-.35,4-.82,5.88-.43,1.72-.82,2.89-.01,4.61.47.99,1.13,1.43,1.91,2.1.84.73.67,1.16.46,2.16-.26,1.24-.43,2.5-.37,3.79.05,1.17.59,2.45.6,3.55,0,.69-.7,1.67-1.11,2.38-.38.65-.48.66-1.35.9-.53.15-1.15.28-1.69.38-.07-1.04,1.1-2.01,1.5-2.98.53-1.32.29-2.53.27-3.93-.01-.98.32-2.67-.11-3.46-.32-.58-1.38-1.21-1.85-1.72-.45-.48-.85-1.15-1.39-1.48-.12,1.72-.23,2.19-1.3,3.34-.73.79-2.06,1.95-2.29,2.99-.11.47.24,1.24.01,1.79-.26.64-.38.38-.8.79-.43.43-.76,1.03-1.38,1.19-.64.17-1.92.03-2.64,0,.46-1.45,1.62-2.74,2.27-4.18.62-1.37,1.73-2.47,2.3-3.9.74-1.88-.32-3.2-1.37-4.68-.72-1.01-.75-.47-1.73.36-.98.82-1.8,1.16-3.04,1.44-3.02.68-5.92-.11-8.76-1.12-.52-.19-1.18-.5-1.74-.44-.18.36.02.97,0,1.39-.04.69-.23,1.4-.41,2.06-.32,1.15-.49,2.17-.49,3.39s-.11,2.67-.11,4.02c0,.9.17,1.68.21,2.56.04.9.38,1.69.47,2.56.05.48-.12.94-.47,1.33-.18.21-.37.26-.57.41-.16.12-.35.35-.54.45-.49.26-1.77.27-2.27.05-.62-.26-.17-.66.1-1.13.44-.77,1.03-1.26,1.16-2.19.11-.85.11-1.79.07-2.65-.06-1.22-.48-2.63-.25-3.82.34-1.8-.26-3.44-.61-5.19-.51.54-.35,2.27-.31,3.02.03.57.26,1.16.27,1.71.02.73-.4,1.38-.37,2.17.03.95.12,1.92.24,2.86.08.62.12.79-.28,1.28-.28.35-.57.85-.96,1.08-.44.25-1.3.23-1.8.2-.75-.05-.58-.18-.33-.66.71-1.35,1.23-2.83,1.22-4.4,0-.6.21-1.34.11-1.93-.1-.58-.38-1.04-.37-1.67,0-.78.14-1.52.1-2.31-.03-.64.17-1.38-.08-1.99-.31-.74-1.31-1.47-1.91-1.95-.77-.62-1.6-1.05-2.01-2-.5-1.18-.53-2.49-.94-3.69-.25-.74-.41-1.4-.48-2.17-.1-1.19-.12-2.4-.26-3.59-.11-.89.28-1.82.11-2.71-.04-.18-.09-.31-.16-.41-.31.25-.67.43-1.11.45-.99.04-2.11-.71-2.18-1.75-.05-.75.33-1.47.43-2.21.06-.43.06-.86.05-1.3-.02-.25-.05-.49-.1-.74-.09-.45-.17-.94-.19-1.44-.56.16-1.14.17-1.81-.02-.69-.2-1.35-1.09-2.07-1.03.62-1.2,2.51-1.98,3.75-1.3Z"/>
      <g>
        <g>
          <path class="cls-14" d="m320.26,42.71c0,3.3,2.67,5.97,5.97,5.97s5.97-2.67,5.97-5.97-2.67-5.97-5.97-5.97-5.97,2.67-5.97,5.97Zm1.19,0c0-2.64,2.14-4.78,4.78-4.78s4.78,2.14,4.78,4.78c0,2.64-2.14,4.78-4.78,4.78s-4.78-2.14-4.78-4.78Z"/>
          <g>
            <path class="cls-14" d="m325.35,38.01c-.26.05-.51.12-.76.21l-1.34-5-.79.16-6.71-19.95,8.5-7.88,1.12,27.26-1.15.23,1.13,4.98Z"/>
            <path class="cls-14" d="m328.91,35.02l-1,3.21c-.26-.1-.54-.18-.82-.23l.89-3.31-.77-.26,4.17-20.63,11.31-2.58-12.66,24.17-1.11-.38Z"/>
            <path class="cls-14" d="m332.53,37.48l-2.51,2.32c-.17-.23-.37-.44-.58-.63l2.44-2.44-.53-.61,13.93-15.78,11.08,3.42-23.05,14.6-.77-.88Z"/>
            <path class="cls-14" d="m320.14,35.88l2.97,3.21c-.21.18-.4.37-.57.58l-3.14-3.14-.61.53-15.79-13.93,3.42-11.08,14.6,23.05-.88.77Z"/>
            <path class="cls-14" d="m336.38,42.11l-.18-.79-5.23.82c-.03-.26-.08-.52-.16-.77l5.17-1.01-.26-1.14,25.38-10.02-3.76,10.97-20.96,1.95Z"/>
            <path class="cls-14" d="m316.09,40.96l-20.63-4.17-2.58-11.31,24.17,12.66-.38,1.11,5.16,1.6c-.1.24-.18.49-.24.74l-5.24-1.4-.26.77Z"/>
            <path class="cls-14" d="m318.82,48.45l3.58-2.89c.16.22.34.42.54.61l-3.44,3.01.8.86-16.97,21.37-2.22-11.38,17.18-12.17.55.6Z"/>
            <path class="cls-14" d="m322.52,51.37l1.68-4.34c.24.11.49.21.76.28l-1.49,4.36,1.12.35-4.01,26.99-7.62-8.74,8.79-19.13.77.24Z"/>
            <path class="cls-14" d="m318.62,42.82l.23,1.15,2.65-.6c.04.3.11.58.2.86l-2.66.71.16.79-19.95,6.71-7.88-8.5,27.26-1.12Z"/>
            <path class="cls-14" d="m331.11,49.59l-2.3-2.85c.24-.15.46-.33.67-.52l2.36,2.7.86-.8,21.37,16.97-11.38,2.22-12.17-17.18.6-.55Z"/>
            <path class="cls-14" d="m332.78,46.42l.24-.77-2.45-.94c.12-.27.22-.55.29-.84l2.45.84.35-1.12,26.99,4.01-8.74,7.62-19.13-8.79Z"/>
            <path class="cls-14" d="m326.41,47.48c.3-.01.59-.05.87-.11l.55,2.8,1.14-.26,10.02,25.38-10.97-3.76-1.95-20.96.79-.18-.45-2.91Z"/>
          </g>
        </g>
        <polygon class="cls-14" points="305.25 151.86 339.02 151.86 333.3 67.24 331.11 67.39 336.67 149.66 307.82 149.66 321.35 63.19 319.18 62.85 305.25 151.86"/>
        <path class="cls-14" d="m326.71,151.84c-.54-.08-.94-.54-.94-1.09v-28.61s-14.59,0-14.59,0c-.61,0-1.1-.49-1.1-1.1,0-.61.49-1.1,1.1-1.1h14.59s0-69.56,0-69.56c0-.61.49-1.1,1.1-1.1s1.1.49,1.1,1.1v69.56s7.87,0,7.87,0c.35,0,.68.16.88.44.21.28.27.64.17.97l-8.97,29.71c-.14.47-.57.78-1.05.78-.05,0-.11,0-.16-.01Zm1.26-29.7v21.16s6.39-21.16,6.39-21.16h-6.39Z"/>
        <path class="cls-14" d="m326.87,151.86c.17,0,.35-.04.51-.13.54-.28.74-.95.46-1.49l-15.69-29.71c-.28-.54-.95-.74-1.49-.46-.54.28-.74.95-.46,1.49l15.69,29.71c.2.37.58.59.97.59Z"/>
        <path class="cls-14" d="m311.95,110.02c-.18-.39-.11-.85.17-1.18l11.69-13.38h-8.46c-.61,0-1.1-.49-1.1-1.1,0-.61.49-1.1,1.1-1.1h17.18c.61,0,1.1.49,1.1,1.1,0,.61-.49,1.1-1.1,1.1h-4.41s7.71,13.56,7.71,13.56c.19.34.19.76,0,1.1-.2.34-.56.55-.95.55h-21.93c-.43,0-.82-.25-1-.64Zm14.09-13.77l-10.67,12.22h17.62s-6.95-12.22-6.95-12.22Z"/>
        <path class="cls-14" d="m317.25,83.35h14.95c.61,0,1.1-.49,1.1-1.1s-.49-1.1-1.1-1.1h-14.95c-.61,0-1.1.49-1.1,1.1,0,.61.49,1.1,1.1,1.1Z"/>
      </g>
      <g>
        <path class="cls-14" d="m229.17,116.61h8.45s.43,35.53.43,35.53h74.97s0-35.97,0-35.97l9.53-.43-17.77-23.62-29.25-17.98-32.28,19.72-14.08,22.75Zm43.55,10.83l-7.71,9.45-7.98-9.45h15.68Zm-4.6-16.66l7.56-9.27,7.82,9.27h-15.38Zm-.99-19.4l7.47,8.85-7.47,9.16v-18.01Zm15.74-1.3l-7.22,8.86-7.47-8.86h13.34s1.35,0,1.35,0Zm1.31,18.97l-7.45-8.83,7.45-9.14c0,3.29,0,13.79,0,17.97Zm10.34,18.4l-7.71,9.45-7.98-9.45h15.68Zm5.84-23.95h3.11v7.28h-3.11v-7.28Zm-4.44,44.19l-7.95-9.42,7.95-9.76c0,3.52,0,14.72,0,19.18Zm-17.15,1.86l8.07-9.9,8.35,9.9h-16.42Zm-1.05-20.71l7.97,9.45-7.97,9.78v-19.22Zm-3.61,18.85l-7.95-9.42,7.95-9.76c0,3.52,0,14.72,0,19.18Zm-17.15,1.86l8.07-9.9,8.35,9.9h-16.42Zm-1.05-20.71l7.97,9.45-7.97,9.78v-19.22Zm-10.98-25.34h3.11v7.28h-3.11v-7.28Z"/>
        <polygon class="cls-14" points="170.51 116.73 226.08 116.73 241.19 92.89 272.72 74.14 209.43 74.14 182.93 92.24 170.51 116.73"/>
        <path class="cls-14" d="m174.79,118.47v33.68s60.96,0,60.96,0v-33.68s-60.96,0-60.96,0Zm50.21,4.56h3.82v12.28h-3.82v-12.28Zm-11.02,0h3.82v12.28h-3.82v-12.28Zm-11.02,0h3.82v12.28h-3.82v-12.28Zm-11.02,0h3.82v12.28h-3.82v-12.28Zm-11.02,0h3.82v12.28h-3.82v-12.28Z"/>
      </g>
    </g>
    <rect class="cls-13" x="6.54" y="451.14" width="163.71" height="152.11"/>
    <rect class="cls-6" x="170.24" y="451.14" width="292.75" height="152.11"/>
    <rect class="cls-14" x="923.68" y="450.98" width="153.03" height="152.11"/>
    <rect class="cls-10" x="616.35" y="451.2" width="307.74" height="152.11"/>
    <rect class="cls-13" x="462.8" y="451.2" width="153.61" height="152.11"/>
    <g>
      <polygon class="cls-5" points="135.67 602.49 81.87 602.49 81.87 465.55 114.3 465.55 135.67 482.21 135.67 602.49"/>
      <rect class="cls-8" x="81.87" y="465.55" width="32.43" height="136.93"/>
      <rect class="cls-2" x="84.61" y="471.87" width="26.27" height="3.06"/>
      <rect class="cls-2" x="84.61" y="478.6" width="26.27" height="3.06"/>
      <rect class="cls-2" x="84.61" y="485.33" width="26.27" height="3.06"/>
      <rect class="cls-2" x="84.61" y="492.05" width="26.27" height="3.06"/>
      <rect class="cls-2" x="84.61" y="498.78" width="26.27" height="3.06"/>
      <rect class="cls-2" x="84.61" y="505.51" width="26.27" height="3.06"/>
      <rect class="cls-2" x="84.61" y="512.23" width="26.27" height="3.06"/>
      <rect class="cls-2" x="84.61" y="518.96" width="26.27" height="3.06"/>
      <rect class="cls-2" x="84.61" y="525.69" width="26.27" height="3.06"/>
      <rect class="cls-2" x="84.61" y="532.41" width="26.27" height="3.06"/>
      <rect class="cls-2" x="84.61" y="539.14" width="26.27" height="3.06"/>
      <rect class="cls-2" x="84.61" y="545.87" width="26.27" height="3.06"/>
      <rect class="cls-2" x="84.61" y="552.59" width="26.27" height="3.06"/>
      <rect class="cls-2" x="84.61" y="559.32" width="26.27" height="3.06"/>
      <rect class="cls-2" x="84.61" y="566.05" width="26.27" height="3.06"/>
    </g>
    <g>
      <polygon class="cls-8" points="90.9 540.22 77.42 554.74 23.32 554.74 36.8 540.22 90.9 540.22"/>
      <polygon class="cls-8" points="78.85 526.68 70.17 536.02 35.37 536.02 44.05 526.68 78.85 526.68"/>
      <polygon class="cls-5" points="70.17 536.02 70.17 549.56 78.85 540.22 81.8 540.22 81.8 529.86 78.85 526.68 70.17 536.02"/>
      <rect class="cls-12" x="35.37" y="536.02" width="34.8" height="13.54"/>
      <rect class="cls-12" x="23.32" y="554.74" width="54.1" height="47.74"/>
      <polygon class="cls-5" points="90.9 540.22 105.01 554.33 105.01 602.49 77.42 602.49 77.42 554.74 90.9 540.22"/>
      <rect class="cls-2" x="95.54" y="560.22" width="5.7" height="9.49" transform="translate(196.78 1129.93) rotate(180)"/>
      <rect class="cls-2" x="84.22" y="560.22" width="5.7" height="9.49" transform="translate(174.13 1129.93) rotate(180)"/>
      <rect class="cls-2" x="95.54" y="574.99" width="5.7" height="9.49" transform="translate(196.78 1159.46) rotate(180)"/>
      <rect class="cls-2" x="84.22" y="574.99" width="5.7" height="9.49" transform="translate(174.13 1159.46) rotate(180)"/>
      <polygon class="cls-2" points="76.84 531.7 76.84 539.81 73.81 543.07 73.81 534.96 76.84 531.7"/>
      <path class="cls-2" d="m87.07,602.49h12.25v-7.16c0-3.38-2.74-6.12-6.12-6.12h0c-3.38,0-6.12,2.74-6.12,6.12v7.16Z"/>
    </g>
    <g>
      <path class="cls-7" d="m575.43,486.53l-10.77,24.91-27.12-1.13,8.35-5.24-8.58-13.67-11.07,20.93-11.05-5.85-11.05-5.85,8.96-16.93c2.08-3.93,5.99-5.89,9.88-5.83h6.25s14.39.03,14.39.03h6.21c5.33.02,10.29,2.76,13.12,7.28l4.13,6.59,8.35-5.24Z"/>
      <path class="cls-12" d="m537.54,510.32l8.35-5.24-8.58-13.67-5.27-8.4c-.96-1.53-2.2-2.71-3.59-3.56-1.68-1.02-3.58-1.54-5.49-1.57h6.25s14.39.03,14.39.03l21.05,33.53-27.12-1.13Z"/>
      <path class="cls-11" d="m528.45,479.45l-13.26,27.04-11.05-5.85,8.96-16.93c2.08-3.93,5.99-5.89,9.88-5.83,1.91.03,3.81.55,5.49,1.57Z"/>
      <path class="cls-6" d="m537.31,491.41l-11.07,20.93-11.05-5.85,13.26-27.04c1.39.84,2.63,2.03,3.59,3.56l5.27,8.4Z"/>
      <path class="cls-7" d="m481.23,515.19l27.06-2.13,11.68,24.5-8.54-4.93-8.07,13.98h23.68s0,12.51,0,12.51v12.51h-19.15c-4.44,0-8.01-2.54-9.77-6l-2.92-5.53-6.71-12.73-2.9-5.5c-2.48-4.72-2.38-10.38.29-15l3.89-6.73-8.54-4.93Z"/>
      <path class="cls-12" d="m519.97,537.55l-8.54-4.93-8.07,13.98-4.96,8.59c-.9,1.56-1.37,3.21-1.47,4.84-.11,1.96.31,3.88,1.18,5.58l-2.92-5.53-6.71-12.73,19.8-34.29,11.68,24.5Z"/>
      <path class="cls-11" d="m496.94,560.02l30.1-.92v12.51h-19.15c-4.44,0-8.01-2.54-9.77-6-.86-1.7-1.29-3.62-1.18-5.58Z"/>
      <path class="cls-6" d="m503.36,546.6h23.68s0,12.51,0,12.51l-30.1.92c.09-1.62.56-3.27,1.47-4.84l4.96-8.59Z"/>
      <g>
        <path class="cls-7" d="m553.93,583.4l-15.41-22.34,15.34-22.39.02,9.86,16.14-.03-11.87-20.49,10.82-6.27,10.82-6.27,9.6,16.57c2.23,3.84,1.82,8.2-.3,11.46l-3.32,5.3-7.65,12.19-3.3,5.26c-2.83,4.51-7.79,7.26-13.12,7.27h-7.78s.02,9.88.02,9.88Z"/>
        <path class="cls-12" d="m553.86,538.66l.02,9.86,16.14-.03,9.92-.02c1.81,0,3.47-.42,4.92-1.16,1.75-.88,3.2-2.22,4.24-3.82l-3.32,5.3-7.65,12.19-39.59.07,15.34-22.39Z"/>
        <path class="cls-11" d="m584.85,547.32l-15.89-25.58,10.82-6.27,9.6,16.57c2.23,3.84,1.82,8.2-.3,11.46-1.04,1.6-2.49,2.94-4.24,3.82Z"/>
        <path class="cls-6" d="m570.01,548.5l-11.87-20.49,10.82-6.27,15.89,25.58c-1.45.73-3.11,1.16-4.92,1.16l-9.92.02Z"/>
      </g>
    </g>
    <g>
      <path class="cls-14" d="m898.13,509.96h-4.2v-2.88h4.2c.62,0,1.12-.5,1.12-1.12s-.5-1.12-1.12-1.12h-4.2v-2c0-.62-.5-1.12-1.12-1.12h-5.67c-3.25,0-5.98,2.3-6.63,5.36h-4.94c-5.6,0-10.13,4.54-10.13,10.13v37.19c0,4.18-3.54,7.56-7.79,7.27-3.87-.26-6.79-3.65-6.79-7.53v-15.78c0-5.6-4.54-10.13-10.13-10.13h-10.73c-.03-1.59-.08-3.65-.16-5.7l-1.58-10.71c-.22-.55-.46-1.08-.71-1.6-.48-1.02-1-2.04-1.52-3.16-4.42-9.64-12.83-20.32-19.73-23.19-4.07-1.69-26.74-3.34-39.29-2.47-12.63.88-20.13,2.06-28.4,5.38-29.84,11.99-51.45,34.74-51.45,34.74,0,0-10.44,4.26-17.7,7.65-6.88,3.2-12.25,9.15-13.43,14.3-.41,1.79-.69,3.62-.53,5.49l1.03,9.36c.79,7.82,6.79,10.75,12.69,10.29l4.83-.22c.1-9.69,7.97-17.51,17.68-17.51s17.57,7.82,17.68,17.5l86.28.19c0-9.77,7.92-17.69,17.68-17.69,8.49,0,15.57,5.98,17.28,13.96,1.72-.53,4.87-1.79,6.53-4.24,2.55-3.76,2.48-9.69,1.69-14.95-1.39-9.3-8.83-14.52-8.83-14.52,0,0,0-.02,0-.06h10.68c4.03,0,7.29,3.27,7.29,7.29v16.04c0,5.91,5.09,10.65,11.11,10.09,5.25-.49,9.16-5.11,9.16-10.38v-36.89c0-4.03,3.26-7.29,7.29-7.29h4.93c.65,3.07,3.38,5.38,6.64,5.38h5.67c.62,0,1.12-.5,1.12-1.12v-2h4.2c.62,0,1.12-.5,1.12-1.12s-.5-1.12-1.12-1.12Zm-230.24,30.88c-3.35,2.88-7.26,4.03-9.57,3.02,1.49-4.75,6.51-9.88,12.55-12.69.3-.14.6-.28.92-.42,1.68,2.31,0,6.74-3.89,10.09Zm98-1.97l-14.6,21.59c-.18.26-.47.41-.77.41-.15,0-.3-.03-.43-.11-.42-.22-.61-.72-.43-1.17l6.21-15.87h-11.3c-.35,0-.68-.2-.84-.52-.16-.32-.12-.69.09-.98l15.35-20.46c.28-.38.8-.49,1.21-.25.41.24.58.74.39,1.18l-6.3,14.71h10.65c.35,0,.66.19.82.5.16.31.14.67-.05.96Zm14.54-28.65l-67.53,8.18c.52-2.21,1.98-4.45,4.08-7.54,3.77-5.56,17.75-16.07,29.47-19.35,13.73-3.84,27.51-3.34,36.24-2.25,6.15.77,9.6,5.84,10.94,10.72.57,2.07,1.04,4.03,1.35,6.03.12.81.21,1.63.26,2.47l-14.81,1.74Zm37.78,8.48c0-3.79,4.48-5.46,7.45-6.14.05.11.1.21.14.32l1.54,10.51s0,.09,0,.14c-3.36-.29-9.14-1.32-9.14-4.82Z"/>
      <path class="cls-14" d="m691.73,553.35c-8.41,0-15.22,6.82-15.22,15.24s6.82,15.24,15.22,15.24,15.22-6.82,15.22-15.24-6.82-15.24-15.22-15.24Zm0,23.46c-4.54,0-8.22-3.68-8.22-8.22s3.68-8.22,8.22-8.22,8.22,3.68,8.22,8.22-3.68,8.22-8.22,8.22Z"/>
      <path class="cls-14" d="m813.37,553.35c-8.41,0-15.22,6.82-15.22,15.24s6.82,15.24,15.22,15.24,15.22-6.82,15.22-15.24-6.82-15.24-15.22-15.24Zm0,23.46c-4.54,0-8.22-3.68-8.22-8.22s3.68-8.22,8.22-8.22,8.22,3.68,8.22,8.22-3.68,8.22-8.22,8.22Z"/>
    </g>
    <g>
      <g>
        <path class="cls-6" d="m1024.55,598.55l1.42-.21-8.43-55.91h1.7v-3.56h-15.15v3.56h1.7l-8.43,55.91,1.42.21.5-3.33h24.77l.5,3.33Zm-3.74-14.67l-9.01,3.95-9.01-3.95h18.02Zm-18.38-1.29l9.26-4.79,9.26,4.79h-18.51Zm20.01,1.96l1.28,8.5-10.34-4.53,9.06-3.97Zm-9.36-7.47l7.64-3.95,1.29,8.58-8.93-4.63Zm6.13-4.61l-7.52,3.89-7.52-3.89h15.04Zm-15.29-1.29l7.73-4.5,7.73,4.5h-15.47Zm9.01-5.25l6.16-3.59,1.19,7.87-7.35-4.28Zm4.52-4.12l-5.8,3.37-5.8-3.37h11.59Zm-12.09-1.29l6.33-4.17,6.33,4.17h-12.66Zm7.5-4.94l4.75-3.13,1.05,6.95-5.79-3.82Zm-1.17-.77l-4.66-3.07h9.32l-4.66,3.07Zm-5.95-2.38l4.78,3.15-5.83,3.84,1.05-6.99Zm-1.5,9.93l6.13,3.57-7.31,4.26,1.18-7.83Zm6.05,14.72l-8.98,4.65,1.3-8.62,7.68,3.97Zm-.07,11.44l-10.63,4.66,1.32-8.74,9.31,4.08Zm1.58.69l10.77,4.72h-21.55l10.77-4.72Zm4.28-46.79l1.21,8.03h-11.26l1.21-8.03h8.84Z"/>
        <polygon class="cls-6" points="1005.05 532.05 1005.05 535.4 1011.67 539.23 1018.29 535.4 1018.29 532.05 1005.05 532.05"/>
      </g>
      <g>
        <path class="cls-6" d="m1018.9,496.76l-2.58-.59,1.84,25.37-56.23,26.96c-2.62.54-6.75-1.85-10.21-6.01-2.06,2.06-1.73,7.59.94,13.17,2.66,5.55,6.74,9.26,9.63,8.99-1.13-5.33-.44-10.1,1.6-11.87l56.3-26.99,18.63,17.32,1.16-2.38c.21-.42,4.95-10.53-2.41-25.88-7.36-15.36-18.21-17.98-18.67-18.09Zm16.51,18.14l-14.12,6.77,7.61-16.19c2.21,2.31,4.48,5.37,6.52,9.42Zm-16.95-16.23s4.3.98,9.25,5.64l-7.66,16.3-1.59-21.94Zm19.75,41.2l-16.28-15.14,17.67,4.27c.57,6.85-1.38,10.87-1.38,10.87Zm-16.3-16.76l14.18-6.8c1.91,4.14,2.89,7.85,3.33,11.03l-17.51-4.23Z"/>
        <path class="cls-6" d="m995.11,599.25l1.25-.19-7.39-48.98h1.49v-3.12h-13.27v3.12h1.49l-7.39,48.98,1.25.19.44-2.92h21.69l.44,2.92Zm-3.27-12.85l-7.89,3.46-7.89-3.46h15.79Zm-16.1-1.13l8.11-4.2,8.11,4.2h-16.22Zm17.53,1.72l1.12,7.44-9.06-3.97,7.93-3.48Zm-8.2-6.55l6.69-3.46,1.13,7.52-7.82-4.05Zm5.37-4.04l-6.59,3.41-6.59-3.41h13.17Zm-13.39-1.13l6.77-3.94,6.77,3.94h-13.55Zm7.89-4.6l5.4-3.14,1.04,6.89-6.44-3.75Zm3.96-3.61l-5.08,2.96-5.08-2.96h10.15Zm-10.59-1.13l5.54-3.65,5.54,3.65h-11.09Zm6.57-4.33l4.16-2.74.92,6.09-5.08-3.35Zm-1.02-.68l-4.08-2.69h8.16l-4.08,2.69Zm-5.21-2.08l4.18,2.76-5.11,3.37.92-6.12Zm-1.31,8.69l5.37,3.13-6.41,3.73,1.03-6.86Zm5.3,12.89l-7.86,4.07,1.14-7.55,6.72,3.48Zm-.06,10.02l-9.31,4.08,1.15-7.65,8.16,3.57Zm1.38.61l9.44,4.13h-18.87l9.44-4.13Zm3.75-40.98l1.06,7.03h-9.86l1.06-7.03h7.74Z"/>
        <rect class="cls-6" x="982.12" y="541.33" width="3.14" height="7.14"/>
        <rect class="cls-6" x="1037.87" y="540.31" width="1.28" height="59.91"/>
        <rect class="cls-6" x="1036.09" y="563.77" width="4.59" height="12.49"/>
        <rect class="cls-6" x="1036.09" y="584.16" width="4.59" height="7.9"/>
      </g>
      <g>
        <path class="cls-6" d="m1027.16,461.51l-3.54-.81,2.52,34.73-76.97,36.9c-3.59.73-9.24-2.54-13.97-8.23-2.82,2.82-2.37,10.4,1.29,18.03,3.64,7.59,9.22,12.67,13.18,12.31-1.54-7.3-.6-13.82,2.19-16.25l77.07-36.95,25.51,23.71,1.59-3.26c.28-.58,6.78-14.41-3.3-35.43-10.08-21.02-24.93-24.62-25.56-24.76Zm22.6,24.84l-19.33,9.27,10.42-22.16c3.02,3.16,6.14,7.36,8.92,12.89Zm-23.2-22.22s5.89,1.34,12.66,7.72l-10.49,22.31-2.18-30.03Zm27.04,56.4l-22.29-20.72,24.18,5.85c.78,9.37-1.89,14.87-1.89,14.87Zm-22.32-22.94l19.41-9.31c2.61,5.66,3.96,10.74,4.55,15.1l-23.96-5.8Z"/>
        <path class="cls-6" d="m994.6,601.81l1.71-.26-10.11-67.04h2.04v-4.27h-18.16v4.27h2.04l-10.11,67.04,1.71.26.6-3.99h29.69l.6,3.99Zm-4.48-17.59l-10.8,4.73-10.8-4.73h21.61Zm-22.04-1.54l11.1-5.75,11.1,5.75h-22.2Zm23.99,2.35l1.54,10.19-12.4-5.43,10.86-4.76Zm-11.22-8.96l9.16-4.74,1.55,10.29-10.71-5.55Zm7.35-5.53l-9.02,4.67-9.02-4.67h18.03Zm-18.33-1.54l9.27-5.4,9.27,5.4h-18.55Zm10.8-6.29l7.39-4.3,1.42,9.43-8.81-5.13Zm5.42-4.94l-6.95,4.05-6.95-4.05h13.9Zm-14.5-1.54l7.59-5,7.59,5h-15.18Zm8.99-5.93l5.69-3.75,1.26,8.33-6.95-4.58Zm-1.4-.92l-5.59-3.68h11.17l-5.59,3.68Zm-7.13-2.85l5.73,3.77-6.99,4.61,1.26-8.38Zm-1.79,11.9l7.35,4.28-8.77,5.11,1.42-9.39Zm7.26,17.65l-10.76,5.57,1.56-10.34,9.2,4.77Zm-.09,13.72l-12.75,5.58,1.58-10.48,11.17,4.89Zm1.9.83l12.92,5.66h-25.83l12.92-5.66Zm5.14-56.1l1.45,9.63h-13.5l1.45-9.63h10.6Z"/>
        <rect class="cls-6" x="976.82" y="522.52" width="4.3" height="9.77"/>
        <rect class="cls-6" x="1053.13" y="521.13" width="1.75" height="82.01"/>
        <rect class="cls-6" x="1050.69" y="553.23" width="6.28" height="17.1"/>
        <rect class="cls-6" x="1050.69" y="581.15" width="6.28" height="10.82"/>
      </g>
    </g>
    <g>
      <rect class="cls-13" x="179.33" y="525.87" width="12.58" height="4.72"/>
      <polygon class="cls-13" points="306.32 527.41 306.32 530.5 307.45 530.5 307.45 530.58 294.87 530.58 294.87 525.87 307.45 525.87 307.45 527.41 306.32 527.41"/>
      <polygon class="cls-13" points="191.9 536.09 191.9 540.01 179.33 540.01 179.33 536.09 180.9 536.09 180.9 535.3 186.4 535.3 186.4 536.09 191.9 536.09"/>
      <polygon class="cls-13" points="307.45 536.09 307.45 540.01 294.87 540.01 294.87 536.09 300.37 536.09 300.37 535.3 306.32 535.3 306.32 536.09 307.45 536.09"/>
      <rect class="cls-13" x="364.04" y="514.08" width="47.95" height="3.93"/>
      <rect class="cls-13" x="305.55" y="514.08" width="47.61" height="3.93"/>
      <rect class="cls-13" x="327.1" y="517.22" width="47.95" height=".79"/>
      <line class="cls-13" x1="385.03" y1="501.36" x2="402.78" y2="515.45"/>
      <g>
        <rect class="cls-13" x="358.54" y="539.23" width="20.44" height="7.86"/>
        <path class="cls-13" d="m445.79,534.29c-2.54-5.02-12.33-10.05-21.85-13.28,2.83.96,5.68,2.08,8.35,3.31h-37.68v-4.89h24.2c-1.22-.33-2.41-.63-3.55-.89s-2.24-.47-3.27-.64c-.04,0-.08-.01-.11-.02h-106.3v25.77h140.01s.29-1.67.47-3.65c.07-.77.13-1.58.15-2.36.03-1.39-.06-2.67-.42-3.37Zm-77.82-14.71h25.15v4.71h-25.15v-4.71Zm-29.08,0h25.15v4.71h-25.15v-4.71Zm-3.93,0v4.71h-25.15v-4.71h25.15Zm69.29,16.51h-97.93v-2.36h97.93v2.36Zm-97.93-5.58v-3.09h131.89c1.65,1,3.13,2.03,4.37,3.09h-136.26Zm115.65-10.14s0,0-.01,0c.07.02.15.05.22.07-.07-.02-.14-.05-.21-.07Z"/>
        <rect class="cls-13" x="446.57" y="536.08" width="2.36" height="6.29"/>
        <rect class="cls-13" x="441.86" y="537.66" width="6.29" height="2.36"/>
        <rect class="cls-13" x="422.99" y="539.23" width="20.44" height="7.86"/>
        <path class="cls-13" d="m414.68,543.83c0,1.8,1.46,3.26,3.26,3.26s3.26-1.46,3.26-3.26-1.46-3.26-3.26-3.26-3.26,1.46-3.26,3.26Z"/>
        <path class="cls-13" d="m406.03,543.83c0,1.8,1.46,3.26,3.26,3.26s3.26-1.46,3.26-3.26-1.46-3.26-3.26-3.26-3.26,1.46-3.26,3.26Z"/>
        <path class="cls-13" d="m393.45,543.83c0,1.8,1.46,3.26,3.26,3.26s3.26-1.46,3.26-3.26-1.46-3.26-3.26-3.26-3.26,1.46-3.26,3.26Z"/>
        <path class="cls-13" d="m384.81,543.83c0,1.8,1.46,3.26,3.26,3.26s3.26-1.46,3.26-3.26-1.46-3.26-3.26-3.26-3.26,1.46-3.26,3.26Z"/>
        <path class="cls-13" d="m342.36,543.83c0,1.8,1.46,3.26,3.26,3.26s3.26-1.46,3.26-3.26-1.46-3.26-3.26-3.26-3.26,1.46-3.26,3.26Z"/>
        <path class="cls-13" d="m333.72,543.83c0,1.8,1.46,3.26,3.26,3.26s3.26-1.46,3.26-3.26-1.46-3.26-3.26-3.26-3.26,1.46-3.26,3.26Z"/>
        <path class="cls-13" d="m321.14,543.83c0,1.8,1.46,3.26,3.26,3.26s3.26-1.46,3.26-3.26-1.46-3.26-3.26-3.26-3.26,1.46-3.26,3.26Z"/>
        <path class="cls-13" d="m312.49,543.83c0,1.8,1.46,3.26,3.26,3.26s3.26-1.46,3.26-3.26-1.46-3.26-3.26-3.26-3.26,1.46-3.26,3.26Z"/>
      </g>
      <g>
        <path class="cls-13" d="m185.61,517.22v25.94h115.55v-25.94h-115.55Zm90.39,2.36h20.44v4.71h-20.44v-4.71Zm-27.51,0h25.15v4.71h-25.15v-4.71Zm-29.08,0h25.15v4.71h-25.15v-4.71Zm-29.08,0h25.15v4.71h-25.15v-4.71Zm-3.93,16.51v-2.36h49.52v2.36h-49.52Zm113.97,0h-49.52v-2.36h49.52v2.36Z"/>
        <rect class="cls-13" x="235.13" y="539.23" width="20.44" height="7.86"/>
        <path class="cls-13" d="m291.27,543.83c0,1.8,1.46,3.26,3.26,3.26s3.26-1.46,3.26-3.26-1.46-3.26-3.26-3.26-3.26,1.46-3.26,3.26Z"/>
        <path class="cls-13" d="m282.62,543.83c0,1.8,1.46,3.26,3.26,3.26s3.26-1.46,3.26-3.26-1.46-3.26-3.26-3.26-3.26,1.46-3.26,3.26Z"/>
        <path class="cls-13" d="m270.05,543.83c0,1.8,1.46,3.26,3.26,3.26s3.26-1.46,3.26-3.26-1.46-3.26-3.26-3.26-3.26,1.46-3.26,3.26Z"/>
        <path class="cls-13" d="m261.4,543.83c0,1.8,1.46,3.26,3.26,3.26s3.26-1.46,3.26-3.26-1.46-3.26-3.26-3.26-3.26,1.46-3.26,3.26Z"/>
        <path class="cls-13" d="m218.96,543.83c0,1.8,1.46,3.26,3.26,3.26s3.26-1.46,3.26-3.26-1.46-3.26-3.26-3.26-3.26,1.46-3.26,3.26Z"/>
        <path class="cls-13" d="m210.31,543.83c0,1.8,1.46,3.26,3.26,3.26s3.26-1.46,3.26-3.26-1.46-3.26-3.26-3.26-3.26,1.46-3.26,3.26Z"/>
        <path class="cls-13" d="m197.73,543.83c0,1.8,1.46,3.26,3.26,3.26s3.26-1.46,3.26-3.26-1.46-3.26-3.26-3.26-3.26,1.46-3.26,3.26Z"/>
        <path class="cls-13" d="m189.09,543.83c0,1.8,1.46,3.26,3.26,3.26s3.26-1.46,3.26-3.26-1.46-3.26-3.26-3.26-3.26,1.46-3.26,3.26Z"/>
      </g>
    </g>
    <rect class="cls-14" x="465.29" y="151.06" width="496.51" height="147.97"/>
    <rect class="cls-13" x="979.22" y="299.03" width="253.51" height="152.11"/>
    <rect class="cls-6" x="460.04" y="299.03" width="519.85" height="152.11"/>
    <rect class="cls-10" x="6.26" y="299.03" width="456.92" height="152.11"/>
    <rect class="cls-14" x="834.51" y="152.28" width="330.11" height="146.75"/>
    <rect class="cls-1" x="142.23" y="299.03" width="604.22" height="152.11"/>
    <g>
      <path class="cls-13" d="m568.97,243.27c-3.24-8.8,1.27-18.56,10.06-21.8,8.8-3.24,18.56,1.27,21.8,10.06,3.24,8.8-1.27,18.56-10.06,21.8-8.8,3.24-18.56-1.27-21.8-10.06Z"/>
      <path class="cls-13" d="m536.7,209.17c-2.39-6.5.93-13.71,7.43-16.1,6.5-2.39,13.71.93,16.1,7.43,2.39,6.5-.93,13.71-7.43,16.1-6.5,2.39-13.71-.93-16.1-7.43Z"/>
      <path class="cls-13" d="m535.96,257.21c-2.53-6.87.99-14.48,7.86-17.01,6.87-2.53,14.48.99,17.01,7.86,2.53,6.87-.99,14.48-7.86,17.01-6.87,2.53-14.48-.99-17.01-7.86Z"/>
    </g>
    <g>
      <g>
        <rect class="cls-13" x="766.81" y="75.03" width="65.59" height="84.17"/>
        <rect class="cls-12" x="763.99" y="81.38" width="71.24" height="91.42"/>
        <rect class="cls-4" x="763.99" y="81.38" width="42.94" height="91.42"/>
        <g>
          <rect class="cls-2" x="767.3" y="88.3" width="4.62" height="4.82"/>
          <rect class="cls-2" x="777.48" y="88.3" width="4.62" height="4.82"/>
          <rect class="cls-2" x="787.67" y="88.3" width="4.62" height="4.82"/>
          <rect class="cls-2" x="797.85" y="88.3" width="4.62" height="4.82"/>
        </g>
        <g>
          <rect class="cls-2" x="767.3" y="101.5" width="4.62" height="4.82"/>
          <rect class="cls-2" x="777.48" y="101.5" width="4.62" height="4.82"/>
          <rect class="cls-2" x="787.67" y="101.5" width="4.62" height="4.82"/>
          <rect class="cls-2" x="797.85" y="101.5" width="4.62" height="4.82"/>
        </g>
        <g>
          <rect class="cls-2" x="767.3" y="114.71" width="4.62" height="4.82"/>
          <rect class="cls-2" x="777.48" y="114.71" width="4.62" height="4.82"/>
          <rect class="cls-2" x="787.67" y="114.71" width="4.62" height="4.82"/>
          <rect class="cls-2" x="797.85" y="114.71" width="4.62" height="4.82"/>
        </g>
        <g>
          <rect class="cls-2" x="767.3" y="127.91" width="4.62" height="4.82"/>
          <rect class="cls-2" x="777.48" y="127.91" width="4.62" height="4.82"/>
          <rect class="cls-2" x="787.67" y="127.91" width="4.62" height="4.82"/>
          <rect class="cls-2" x="797.85" y="127.91" width="4.62" height="4.82"/>
        </g>
      </g>
      <g>
        <rect class="cls-12" x="760.51" y="141.95" width="78.2" height="157.1"/>
        <rect class="cls-4" x="760.51" y="141.95" width="47.14" height="157.1"/>
        <g>
          <rect class="cls-2" x="764.14" y="148.31" width="5.07" height="5.29"/>
          <rect class="cls-2" x="775.32" y="148.31" width="5.07" height="5.29"/>
          <rect class="cls-2" x="786.5" y="148.31" width="5.07" height="5.29"/>
          <rect class="cls-2" x="797.68" y="148.31" width="5.07" height="5.29"/>
        </g>
        <g>
          <rect class="cls-2" x="764.14" y="162.81" width="5.07" height="5.29"/>
          <rect class="cls-2" x="775.32" y="162.81" width="5.07" height="5.29"/>
          <rect class="cls-2" x="786.5" y="162.81" width="5.07" height="5.29"/>
          <rect class="cls-2" x="797.68" y="162.81" width="5.07" height="5.29"/>
        </g>
        <g>
          <rect class="cls-2" x="764.14" y="177.3" width="5.07" height="5.29"/>
          <rect class="cls-2" x="775.32" y="177.3" width="5.07" height="5.29"/>
          <rect class="cls-2" x="786.5" y="177.3" width="5.07" height="5.29"/>
          <rect class="cls-2" x="797.68" y="177.3" width="5.07" height="5.29"/>
        </g>
        <g>
          <rect class="cls-2" x="764.14" y="191.79" width="5.07" height="5.29"/>
          <rect class="cls-2" x="775.32" y="191.79" width="5.07" height="5.29"/>
          <rect class="cls-2" x="786.5" y="191.79" width="5.07" height="5.29"/>
          <rect class="cls-2" x="797.68" y="191.79" width="5.07" height="5.29"/>
        </g>
        <g>
          <rect class="cls-2" x="764.14" y="206.29" width="5.07" height="5.29"/>
          <rect class="cls-2" x="775.32" y="206.29" width="5.07" height="5.29"/>
          <rect class="cls-2" x="786.5" y="206.29" width="5.07" height="5.29"/>
          <rect class="cls-2" x="797.68" y="206.29" width="5.07" height="5.29"/>
        </g>
        <g>
          <rect class="cls-2" x="764.14" y="220.78" width="5.07" height="5.29"/>
          <rect class="cls-2" x="775.32" y="220.78" width="5.07" height="5.29"/>
          <rect class="cls-2" x="786.5" y="220.78" width="5.07" height="5.29"/>
          <rect class="cls-2" x="797.68" y="220.78" width="5.07" height="5.29"/>
        </g>
        <g>
          <rect class="cls-2" x="764.14" y="235.27" width="5.07" height="5.29"/>
          <rect class="cls-2" x="775.32" y="235.27" width="5.07" height="5.29"/>
          <rect class="cls-2" x="786.5" y="235.27" width="5.07" height="5.29"/>
          <rect class="cls-2" x="797.68" y="235.27" width="5.07" height="5.29"/>
        </g>
        <g>
          <rect class="cls-2" x="764.14" y="249.77" width="5.07" height="5.29"/>
          <rect class="cls-2" x="775.32" y="249.77" width="5.07" height="5.29"/>
          <rect class="cls-2" x="786.5" y="249.77" width="5.07" height="5.29"/>
          <rect class="cls-2" x="797.68" y="249.77" width="5.07" height="5.29"/>
        </g>
      </g>
    </g>
    <g>
      <rect class="cls-12" x="912.05" y="124.54" width="114.96" height="174.49"/>
      <rect class="cls-4" x="912.05" y="124.54" width="69.29" height="174.49"/>
      <g>
        <rect class="cls-2" x="917.9" y="130.52" width="56.13" height="3.78"/>
        <rect class="cls-2" x="987.13" y="130.52" width="35.55" height="3.78"/>
      </g>
      <g>
        <rect class="cls-2" x="917.9" y="147.13" width="56.13" height="3.78"/>
        <rect class="cls-2" x="987.13" y="147.13" width="35.55" height="3.78"/>
      </g>
      <g>
        <rect class="cls-2" x="917.9" y="163.75" width="56.13" height="3.78"/>
        <rect class="cls-2" x="987.13" y="163.75" width="35.55" height="3.78"/>
      </g>
      <g>
        <rect class="cls-2" x="917.9" y="180.36" width="56.13" height="3.78"/>
        <rect class="cls-2" x="987.13" y="180.36" width="35.55" height="3.78"/>
      </g>
      <g>
        <rect class="cls-2" x="917.9" y="196.98" width="56.13" height="3.78"/>
        <rect class="cls-2" x="987.13" y="196.98" width="35.55" height="3.78"/>
      </g>
      <g>
        <rect class="cls-2" x="917.9" y="213.59" width="56.13" height="3.78"/>
        <rect class="cls-2" x="987.13" y="213.59" width="35.55" height="3.78"/>
      </g>
      <g>
        <rect class="cls-2" x="917.9" y="230.21" width="56.13" height="3.78"/>
        <rect class="cls-2" x="987.13" y="230.21" width="35.55" height="3.78"/>
      </g>
      <g>
        <rect class="cls-2" x="917.9" y="246.82" width="56.13" height="3.78"/>
        <rect class="cls-2" x="987.13" y="246.82" width="35.55" height="3.78"/>
      </g>
    </g>
    <g>
      <g>
        <polygon class="cls-13" points="908.07 252.61 871.62 196.08 922.77 196.08 963.89 228.23 908.07 252.61"/>
        <rect class="cls-12" x="911.19" y="228.21" width="52.7" height="70.94"/>
        <polygon class="cls-4" points="912.75 299.15 871.62 299.15 830.49 299.15 830.49 267.88 830.49 228.23 871.62 196.08 912.75 228.23 912.75 267.88 912.75 299.15"/>
        <rect class="cls-2" x="839.19" y="238.69" width="61.08" height="4.19"/>
        <rect class="cls-2" x="839.19" y="252.58" width="61.08" height="4.19"/>
        <rect class="cls-2" x="839.19" y="266.47" width="61.08" height="4.19"/>
        <rect class="cls-2" x="839.19" y="280.36" width="61.08" height="4.19"/>
        <rect class="cls-2" x="925.88" y="244.97" width="7.22" height="11.99"/>
        <rect class="cls-2" x="925.88" y="266.64" width="7.22" height="11.99"/>
      </g>
      <rect class="cls-2" x="947.06" y="244.97" width="7.22" height="11.99"/>
      <rect class="cls-2" x="947.06" y="266.64" width="7.22" height="11.99"/>
    </g>
    <g>
      <path class="cls-2" d="m1027.48,217.03c-7.81,2.52-23.66,37.27-19.63,53.89,4.03,16.62,19.63,17.88,19.63,17.88,0,0,15.6-1.26,19.63-17.88,4.03-16.62-11.82-51.37-19.63-53.89Z"/>
      <polygon class="cls-13" points="1043.13 260.6 1029.71 274.41 1028.84 256.29 1038.71 239.02 1028.7 253.4 1027.48 227.85 1026.26 253.4 1016.25 239.02 1026.12 256.29 1025.25 274.41 1011.83 260.6 1025.1 277.62 1024.07 299.03 1027.48 299.03 1030.89 299.03 1029.86 277.62 1043.13 260.6"/>
    </g>
    <path class="cls-5" d="m634.74,142.9c-6.85,0-12.9,3-16.52,7.56-3.61-4.57-9.66-7.56-16.52-7.56-11.07,0-20.04,7.81-20.04,17.44h73.12c0-9.63-8.97-17.44-20.04-17.44Z"/>
    <path class="cls-5" d="m669.81,206.83c-3.88,0-7.31,1.7-9.35,4.28-2.05-2.59-5.47-4.28-9.35-4.28-6.27,0-11.35,4.42-11.35,9.87h41.4c0-5.45-5.08-9.87-11.35-9.87Z"/>
    <path class="cls-5" d="m1093.12,198.34c-5.47,0-10.29,2.39-13.18,6.03-2.88-3.64-7.71-6.03-13.18-6.03-8.83,0-15.99,6.23-15.99,13.91h58.33c0-7.68-7.15-13.91-15.99-13.91Z"/>
    <g>
      <g>
        <polygon class="cls-13" points="738.25 209.15 760.75 162.51 695.81 162.51 670.42 189.03 738.25 209.15"/>
        <rect class="cls-5" x="670.42" y="189.02" width="65.91" height="109.97"/>
        <polygon class="cls-12" points="735.36 298.99 760.75 298.99 760.75 162.51 735.36 189.03 735.36 289.26 735.36 298.99"/>
      </g>
      <g>
        <rect class="cls-2" x="723.2" y="197.89" width="5.02" height="10.09" transform="translate(1451.41 405.87) rotate(-180)"/>
        <rect class="cls-2" x="711.97" y="197.89" width="5.02" height="10.09" transform="translate(1428.95 405.87) rotate(-180)"/>
        <rect class="cls-2" x="700.73" y="197.89" width="5.02" height="10.09" transform="translate(1406.49 405.87) rotate(-180)"/>
        <rect class="cls-2" x="689.5" y="197.89" width="5.02" height="10.09" transform="translate(1384.02 405.87) rotate(-180)"/>
        <rect class="cls-2" x="678.27" y="197.89" width="5.02" height="10.09" transform="translate(1361.56 405.87) rotate(-180)"/>
      </g>
      <g>
        <rect class="cls-2" x="723.2" y="216.71" width="5.02" height="10.09" transform="translate(1451.41 443.51) rotate(-180)"/>
        <rect class="cls-2" x="711.97" y="216.71" width="5.02" height="10.09" transform="translate(1428.95 443.51) rotate(-180)"/>
        <rect class="cls-2" x="700.73" y="216.71" width="5.02" height="10.09" transform="translate(1406.49 443.51) rotate(-180)"/>
        <rect class="cls-2" x="689.5" y="216.71" width="5.02" height="10.09" transform="translate(1384.02 443.51) rotate(-180)"/>
        <rect class="cls-2" x="678.27" y="216.71" width="5.02" height="10.09" transform="translate(1361.56 443.51) rotate(-180)"/>
      </g>
      <g>
        <rect class="cls-2" x="723.2" y="235.53" width="5.02" height="10.09" transform="translate(1451.41 481.16) rotate(-180)"/>
        <rect class="cls-2" x="711.97" y="235.53" width="5.02" height="10.09" transform="translate(1428.95 481.16) rotate(-180)"/>
        <rect class="cls-2" x="700.73" y="235.53" width="5.02" height="10.09" transform="translate(1406.49 481.16) rotate(-180)"/>
        <rect class="cls-2" x="689.5" y="235.53" width="5.02" height="10.09" transform="translate(1384.02 481.16) rotate(-180)"/>
        <rect class="cls-2" x="678.27" y="235.53" width="5.02" height="10.09" transform="translate(1361.56 481.16) rotate(-180)"/>
      </g>
      <g>
        <rect class="cls-2" x="723.2" y="254.36" width="5.02" height="10.09" transform="translate(1451.41 518.8) rotate(-180)"/>
        <rect class="cls-2" x="711.97" y="254.36" width="5.02" height="10.09" transform="translate(1428.95 518.8) rotate(-180)"/>
        <rect class="cls-2" x="700.73" y="254.36" width="5.02" height="10.09" transform="translate(1406.49 518.8) rotate(-180)"/>
        <rect class="cls-2" x="689.5" y="254.36" width="5.02" height="10.09" transform="translate(1384.02 518.8) rotate(-180)"/>
        <rect class="cls-2" x="678.27" y="254.36" width="5.02" height="10.09" transform="translate(1361.56 518.8) rotate(-180)"/>
      </g>
    </g>
    <g>
      <path class="cls-2" d="m682.27,266.53s3.61-4.68,2.94-9.89c-.67-5.21-4.81-6.41-7.88-6.41,0,0,.6-12.03-7.32-13.9-7.91,1.87-7.32,13.9-7.32,13.9-3.07,0-7.22,1.2-7.88,6.41-.67,5.21,2.94,9.89,2.94,9.89,0,0-6.15,3.21-3.74,10.82,2.4,7.62,16,10.29,16,10.29,0,0,13.6-2.67,16-10.29,2.41-7.62-3.74-10.82-3.74-10.82Z"/>
      <polygon class="cls-13" points="681.27 271.41 671.62 281.34 670.99 268.31 678.09 255.88 670.89 266.23 670.01 247.84 669.13 266.23 661.93 255.88 669.03 268.31 668.41 281.34 658.75 271.41 668.3 283.66 667.56 299.06 670.01 299.06 672.47 299.06 671.73 283.66 681.27 271.41"/>
    </g>
    <g>
      <path class="cls-9" d="m137.28,408.02c0,2.61-28.18,4.72-62.94,4.72s-62.94-2.12-62.94-4.72,28.18-4.72,62.94-4.72,62.94,2.11,62.94,4.72Z"/>
      <polygon class="cls-8" points="56.84 407.4 94.18 407.4 75.51 374.02 56.84 340.64 38.18 374.02 19.51 407.4 56.84 407.4"/>
      <polygon class="cls-6" points="68.81 362.04 56.84 340.64 44.88 362.04 68.81 362.04"/>
      <polygon class="cls-13" points="99.98 407.4 130.39 407.4 115.19 380.22 99.98 353.03 84.78 380.22 69.58 407.4 99.98 407.4"/>
      <polygon class="cls-6" points="109.73 370.45 99.98 353.03 90.24 370.45 109.73 370.45"/>
    </g>
    <path class="cls-10" d="m696.89,298.97c2.32-7.34,9.17-12.66,17.28-12.66,3.73,0,7.19,1.13,10.07,3.06,2.67-7.96,10.18-13.69,19.03-13.69,9.41,0,17.31,6.48,19.48,15.22,2.43-2.33,5.73-3.76,9.36-3.76,6.9,0,12.58,5.16,13.43,11.83h-88.65Z"/>
    <path class="cls-10" d="m1080.7,298.97c1.93-6.11,7.63-10.53,14.38-10.53,3.1,0,5.99.94,8.38,2.55,2.22-6.62,8.47-11.39,15.84-11.39,7.83,0,14.41,5.39,16.21,12.67,2.02-1.94,4.77-3.13,7.79-3.13,5.74,0,10.47,4.29,11.17,9.84h-73.78Z"/>
    <g>
      <path class="cls-13" d="m924.82,396.93l-8.28-64.81c-.59-4.65-4.57-8.16-9.26-8.16h-96.44c-4.69,0-8.67,3.51-9.26,8.16l-8.28,64.81c-.11.89-.11,1.75.02,2.57.32,2.18,1.09,4.2,2.23,6.09.7,1.17,1.53,2.27,2.45,3.29.57.64,1.16,1.28,1.87,1.79.75.54,1.65.91,2.51,1.24.29.08.57.16.86.24h50.61l-4.55,20.23c0,.47,7.67.62,9.75.62h.04c2.08,0,9.75-.14,9.75-.62l-4.55-20.23h50.6c.29-.08.57-.15.86-.24,2.18-.62,3.77-2.22,5.16-3.95,1.24-1.53,2.28-3.23,3.01-5.07.42-1.06.82-2.24.89-3.39.12-.82.13-1.68.02-2.57Zm-5.71,2.2c-.26.73-.75,1.33-1.37,1.73-.52.33-1.13.52-1.77.52h-113.81c-.64,0-1.26-.18-1.77-.52-.63-.39-1.12-.99-1.37-1.73-.14-.41-.18-.92-.11-1.49l8.28-64.81c.24-1.84,1.81-3.23,3.67-3.23h96.44c1.86,0,3.43,1.39,3.67,3.23l8.28,64.81c.07.56.03,1.08-.11,1.49Z"/>
      <path class="cls-13" d="m838.56,365.69l-1.57,31.93c-.03.63-.55,1.12-1.17,1.12h-30.28c-.61,0-1.19-.17-1.68-.49-.59-.36-1.06-.92-1.31-1.6-.14-.38-.17-.86-.11-1.38l3.89-29.79c.08-.59.58-1.02,1.17-1.02h29.89c.67,0,1.21.56,1.17,1.23Z"/>
      <path class="cls-13" d="m840.16,333.65l-1.28,26.1c-.03.63-.55,1.12-1.17,1.12h-29.37c-.71,0-1.26-.62-1.17-1.33l3.14-24.11c.22-1.72,1.72-3.01,3.48-3.01h25.19c.67,0,1.21.56,1.17,1.23Z"/>
      <path class="cls-13" d="m875.17,360.87h-31.52c-.67,0-1.21-.56-1.17-1.23l1.28-26.1c.03-.63.55-1.12,1.17-1.12h28.97c.63,0,1.14.49,1.17,1.12l1.28,26.1c.03.67-.5,1.23-1.17,1.23Z"/>
      <path class="cls-13" d="m877.06,398.75h-35.3c-.67,0-1.21-.56-1.17-1.23l1.57-31.93c.03-.63.55-1.12,1.17-1.12h32.16c.63,0,1.14.49,1.17,1.12l1.57,31.93c.03.67-.5,1.23-1.17,1.23Z"/>
      <path class="cls-13" d="m915.65,396.66c-.24.68-.71,1.24-1.31,1.6-.49.31-1.08.49-1.68.49h-29.65c-.63,0-1.14-.49-1.17-1.12l-1.57-31.93c-.03-.67.5-1.23,1.17-1.23h29.27c.59,0,1.09.44,1.17,1.02l3.89,29.79c.07.52.03,1-.11,1.38Z"/>
      <path class="cls-13" d="m909.87,360.87h-28.75c-.63,0-1.14-.49-1.17-1.12l-1.28-26.1c-.03-.67.5-1.23,1.17-1.23h24.57c1.76,0,3.26,1.29,3.48,3.01l3.14,24.11c.09.7-.46,1.33-1.17,1.33Z"/>
    </g>
    <path class="cls-10" d="m1211.67,391.82c.03-10.39-4.53-20.63-12.22-27.6,0,0,0,0,0,0-12.43-11.87-33.67-12.94-47.13-2.71l-18-21.31c.46-1.64,2.34-4.56.92-6.17l.89-2.4c4.61,3.51,12.67,2.14,12.73-4.62,0-2.06-1.68-3.74-3.74-3.74h-18.91c-1.57,0-2.85,1.28-2.85,2.85s1.28,2.85,2.85,2.85c2.25,0,5.11-.19,7.15.87l-1.14,3.07c-2.06.29-2.54,3.47-3.22,4.99h-66.64c.17-.47,1.43-3.85,1.63-4.4.34-.9.19-1.93-.37-2.7.13-1.04,3.22-6.86,2.16-7.81.63-1.41-20.53-.4-20.96-.69-13.68.24-13.68,20.57,0,20.82,0,0,6.17,0,6.17,0,2.08.02,2.08-3.24,0-3.21,0,0-6.18,0-6.18,0-9.46-.17-9.46-14.23,0-14.4,0,0,17.33,0,17.33,0l-1.55,4.17c-.93.22-1.71.91-2.04,1.81l-4.06,10.94c-1.1,2.96-3.93,10.59-4.99,13.46-39.13-10.73-65.08,39.19-33.92,65.07,23.83,19.91,61.5,2.07,61.09-29.06.04-10.41-4.51-20.69-12.22-27.68,0,0,0,0,0,0-2.84-2.57-6.06-4.73-9.54-6.33.56-1.51,1.97-5.32,2.51-6.77l43.24,35.25c-3.94,7.58,1.6,17.46,10.06,18.08v3.57h-4.25c-.35,0-.64.29-.64.64v4.12c0,.35.29.64.64.64h11.07c.35,0,.64-.29.64-.64v-4.12c0-.35-.29-.64-.64-.64h-4.25v-3.57c5.39-.55,9.79-4.5,11-9.67h12.54c.73,10.33,6.04,20.2,14.2,26.56,23.95,19.36,61.08,1.32,60.58-29.53Zm-172.09-9.09v-17.33c2.11.03,4.17.3,6.14.79l-6.14,16.54Zm-.64,1.73l-.74,2.01c-.18.03-.35.08-.52.13l-7.18-19.71c2.65-.93,5.49-1.45,8.44-1.48v19.06Zm.31-19.07s0,0,.01,0h-.01Zm-9.36,1.71l7.18,19.71c-.4.17-.77.39-1.11.65l-13.49-16.07c2.21-1.81,4.71-3.26,7.42-4.29Zm0,0c.18-.07.37-.14.55-.2l-.55.2Zm-7.91,4.71l13.48,16.07c-.31.29-.59.62-.83.98l-18.17-10.49c1.47-2.48,3.34-4.69,5.51-6.56Zm-5.83,7.12l18.17,10.49c-.19.38-.34.78-.44,1.21l-20.66-3.64c.54-2.88,1.54-5.59,2.93-8.06Zm-3.04,8.69l20.66,3.64c-.05.42-.05.87,0,1.29l-20.66,3.64c-.46-2.78-.46-5.8,0-8.57Zm20.77,5.56c.1.42.25.83.44,1.21l-18.17,10.49c-1.39-2.47-2.39-5.18-2.93-8.06l20.66-3.64Zm.76,1.77c.24.36.52.69.83.98l-13.48,16.07c-2.17-1.87-4.04-4.08-5.51-6.56l18.17-10.49Zm1.32,1.4c.34.26.71.48,1.11.65l-7.18,19.71c-2.71-1.03-5.22-2.48-7.42-4.29l13.49-16.07Zm1.71.87c.4.12.83.19,1.27.22v20.98c-2.96-.04-5.8-.55-8.44-1.48l7.18-19.71Zm-7.22,19.7c-.19-.07-.37-.13-.55-.2l.55.2Zm8.82,1.51h-.01.01Zm.31-20.99c.44-.03.86-.1,1.27-.22l7.18,19.71c-2.65.93-5.49,1.45-8.44,1.48v-20.98Zm9.05,19.28l-7.18-19.71c.4-.17.77-.39,1.11-.65l13.49,16.07c-2.21,1.81-4.71,3.26-7.42,4.29Zm0,0c-.18.07-.37.14-.55.2l.55-.2Zm7.91-4.71l-13.48-16.07c.31-.29.59-.62.83-.98l18.17,10.49c-1.47,2.48-3.34,4.69-5.51,6.56Zm5.83-7.12l-18.17-10.49c.19-.38.34-.78.44-1.21l20.66,3.64c-.54,2.88-1.54,5.59-2.93,8.05Zm3.04-8.69l-20.66-3.64c.05-.42.05-.87,0-1.29l20.66-3.64c.46,2.78.46,5.8,0,8.57Zm-20.77-5.56c-.1-.42-.25-.83-.44-1.21l18.17-10.49c1.39,2.47,2.39,5.18,2.93,8.05l-20.66,3.64Zm-.76-1.77c-.09-.13-.18-.26-.28-.38l.84-2.27,12.09-14.4c2.17,1.87,4.04,4.08,5.51,6.56l-18.17,10.49Zm1.23-4.44l6.02-16.22c1.76.88,3.41,1.95,4.92,3.19l-10.93,13.03Zm15.12-40.74h66.64l-13.25,35.7c-3.31-.45-6.77.57-9.26,2.52l-44.77-36.5.64-1.72Zm58.81,37.71l12.97-34.97,15.9,18.82c-6.24,6.16-10.32,14.49-11.03,23.77h-12.54c-.74-3.16-2.68-5.87-5.31-7.62Zm39.97,3.45c-.72,1.55-1.92,2.75-3.39,3.45l-7.45-1.31c.54-2.88,1.54-5.59,2.93-8.06l8.32,4.8c-.11.38-.24.75-.41,1.11Zm-10.95,2.77l6.39,1.13c-1.3.46-5.18.21-6.58.27.05-.47.12-.94.19-1.4Zm9.92-10.46c1.42,1.68,1.97,3.83,1.59,5.92l-8.15-4.7c1.02-1.71,2.22-3.29,3.59-4.73l2.97,3.52Zm21.18,12.26l18.17-10.49c1.39,2.47,2.39,5.18,2.93,8.05l-20.66,3.64c-.1-.42-.25-.83-.44-1.21Zm-.32-.56c-.24-.36-.52-.69-.83-.98l13.48-16.07c2.17,1.87,4.04,4.08,5.51,6.56l-18.17,10.49Zm-1.32-1.4c-.34-.26-.71-.48-1.11-.65l7.18-19.71c2.71,1.03,5.22,2.48,7.42,4.29l-13.49,16.07Zm-1.71-.87c-.4-.12-.83-.19-1.27-.22v-20.98c2.96.04,5.8.55,8.44,1.48l-7.18,19.71Zm7.22-19.7c.19.07.37.13.55.2l-.55-.2Zm-8.82-1.51s0,0,.01,0h-.01Zm-.31,20.99c-.17,0-.35.03-.52.05l-1.43-1.69-6.5-17.86c2.65-.93,5.49-1.45,8.44-1.48v20.98Zm-9.05-19.28l5.91,16.22-11.34-13.42c1.68-1.13,3.5-2.08,5.43-2.8Zm0,0c.18-.07.37-.14.55-.2l-.55.2Zm-8.87,27.69l-7.93,1.4c-.08-.46-.14-.93-.19-1.4h8.12Zm3.7,0h8.89l-17.47,10.08c-1.39-2.47-2.39-5.18-2.93-8.06l11.51-2.03Zm9.91.15c.24.36.52.69.83.98l-13.48,16.07c-2.17-1.87-4.04-4.08-5.51-6.56l18.17-10.49Zm1.32,1.4c.34.26.71.48,1.11.65l-7.18,19.71c-2.71-1.03-5.22-2.48-7.42-4.29l13.49-16.07Zm1.71.87c.4.12.83.19,1.27.22v20.98c-2.96-.04-5.8-.55-8.44-1.48l7.18-19.71Zm-7.22,19.7c-.19-.07-.37-.13-.55-.2l.55.2Zm8.82,1.51h-.01.01Zm.31-20.99c.44-.03.86-.1,1.27-.22l7.18,19.71c-2.65.93-5.49,1.45-8.44,1.48v-20.98Zm9.05,19.28l-7.18-19.71c.4-.17.77-.39,1.11-.65l13.49,16.07c-2.21,1.81-4.71,3.26-7.42,4.29Zm0,0c-.18.07-.37.14-.55.2l.55-.2Zm7.91-4.71l-13.48-16.07c.31-.29.59-.62.83-.98l18.17,10.49c-1.47,2.48-3.34,4.69-5.51,6.56Zm5.83-7.12l-18.17-10.49c.19-.38.34-.78.44-1.21l20.66,3.64c-.54,2.88-1.54,5.59-2.93,8.05Zm3.04-8.69l-20.66-3.64c.05-.42.05-.87,0-1.29l20.66-3.64c.46,2.78.46,5.8,0,8.57Z"/>
    <rect class="cls-3" x="6.66" y="151.74" width="459.11" height="147.29"/>
  </g>
</svg>